<svg fill="#1A92D4" id="svg31911" height="512" viewBox="0 0 16.933333 16.933334" width="512" xmlns="http://www.w3.org/2000/svg" xmlns:svg="http://www.w3.org/2000/svg"><g id="layer1" transform="translate(0 -280.067)"><path id="path12670" d="m1.3239491 280.59631c-.43516024 0-.79478454.35756-.79478454.79272v8.99635c0 .43516.3596243.79272.79478454.79272h2.644283c.3843761.0345.3843761-.56163 0-.5271h-2.644283c-.1511617 0-.2656178-.11447-.2656178-.26562v-7.14479h10.5838497v1.85364c-.0078.36048.536951.36048.529167 0v-3.7052c0-.43516-.359622-.79272-.794782-.79272zm12.9588979.26149c-.06874.002-.13398.0308-.181901.0801l-.794782.79324c-.103629.10338-.103629.27127 0 .37465l.794782.79324c.247938.28941.662522-.12517.373105-.37311l-.340032-.34158h.418063c.44433 0 .793234.3484.793234.79272v1.58801c0 .35287.529167.35287.529167 0v-1.58801c0-.72832-.594072-1.3224-1.322401-1.3224h-.419614l.341583-.34158c.174548-.16777.05079-.46245-.191204-.45527zm-12.9588979.26768h10.0526169c.151159 0 .265615.11239.265615.26355v1.32447h-10.5838497v-1.32447c0-.15116.1144561-.26355.2656178-.26355zm.5281322.52865c-.1461241 0-.2645834.11846-.2645834.26458 0 .14613.1184593.26459.2645834.26459s.2645833-.11846.2645833-.26459c0-.14612-.1184592-.26458-.2645833-.26458zm1.0583334 0c-.1461241 0-.2645834.11846-.2645834.26458 0 .14613.1184593.26459.2645834.26459s.2645833-.11846.2645833-.26459c0-.14612-.1184592-.26458-.2645833-.26458zm1.0583333 0c-.146124 0-.2645833.11846-.2645833.26458 0 .14613.1184593.26459.2645833.26459.1461241 0 .2645834-.11846.2645834-.26459 0-.14612-.1184593-.26458-.2645834-.26458zm3.6868548.52968 3.1917962.00053c.353124 0 .353124-.52968 0-.52968h-3.1876632c-.342731.0178-.350295.50056-.0041.52917zm-4.2165374 2.11564c-.3606641-.008-.3606641.53714 0 .52916h4.7635324c.360664.008.360664-.53714 0-.52916zm5.8223844 0c-.360665-.008-.360665.53714 0 .52916h1.0562642c.360664.008.360664-.53714 0-.52916zm-6.8812364 1.5875c-.3531208 0-.3531208.52968 0 .52968h1.5880187c.3531209 0 .3531209-.52968 0-.52968zm3.1760344 0c-.43516 0-.7927152.36013-.7927152.7953v8.99376c0 .43516.3575552.7953.7927152.7953h10.0546832c.43516 0 .793234-.36014.793234-.7953v-8.99376c0-.43517-.358074-.7953-.793234-.7953zm0 .52968h10.0546832c.151162 0 .263552.11446.263552.26562v1.3224h-10.5817842v-1.3224c0-.15116.11239-.26562.263549-.26562zm.529167.52917c-.146124 0-.264583.11846-.264583.26458s.118459.26458.264583.26458.264583-.11846.264583-.26458-.118459-.26458-.264583-.26458zm1.058333 0c-.146124 0-.264583.11846-.264583.26458s.118459.26458.264583.26458.264584-.11846.264584-.26458-.11846-.26458-.264584-.26458zm1.058334 0c-.146124 0-.264584.11846-.264584.26458s.11846.26458.264584.26458.264583-.11846.264583-.26458-.118459-.26458-.264583-.26458zm3.7036502.52916h3.176032c.345036-.008.345036-.5215 0-.52916h-3.188694c-.357228.0243-.332643.53792.01267.52916zm-9.525.52969h1.5875001c.3531209 0 .3531209-.52969 0-.52969h-1.6004197c-.3660405.0172-.3402118.54691.012912.52969zm2.9119668.52916h10.5817842v7.1422c0 .15116-.11239.26614-.263552.26614h-10.0546832c-.151159 0-.263549-.11498-.263549-.26614zm-2.9119668 1.05834h1.5875001c.3450643-.008.3450643-.52154 0-.52917h-1.6004197c-.3583067.0239-.333158.53907.012912.52917zm10.128581.7214c.26179.2618.26053.67022-.0011.93483l-1.3286 1.32498c-.237882.2372-.597874.25723-.856798.0667-.28395-.20735-.5961272.21695-.313674.42633.465511.34261 1.124551.3 1.544093-.11834l1.33015-1.32653c.000794-.00026.0013-.00079.0021-.001.45866-.46397.461563-1.21841-.0011-1.68103-.231312-.23131-.537088-.34756-.842586-.34778-.305507-.00023-.610423.11549-.841034.34881l-.359667.3483c-.259567.24518.114295.63164.367935.38034l.365869-.3545c.261019-.26407.672502-.26283.934312-.001zm-3.8514442 3.84318c-.261792-.2618-.261581-.66919 0-.9338l1.33015-1.32601c.2378792-.2372.5963262-.25723.8552452-.0667.285665.22487.613264-.21785.314711-.42529-.232754-.17131-.51376-.24692-.789101-.22686-.275339.0201-.5462562.13655-.7560262.34571l-1.33015 1.32654c-.000794.00053-.0013.001-.0021.002-.458664.46397-.460645 1.21738.0021 1.68.462629.46263 1.222406.46468 1.683617-.002l.3596672-.34778c.29237-.24357-.115054-.6636-.3674192-.37879l-.36716.35346c-.26076.26408-.671726.26191-.933534.00001zm-6.8104389-1.91978c-.068445.002-.1336437.0295-.1819011.078l-.79478184.79271c-.2501133.25012.1250553.62529.37516864.37517l.3415823-.34261v1.4795c0 .72831.594069 1.3224 1.3224009 1.3224h.5291666c.3528642 0 .3528642-.52969 0-.52969h-.5291666c-.4443202 0-.7932342-.3484-.7932342-.79271v-1.47847l.3420983.34158c.2500631.26078.6357727-.12547.3746527-.37517l-.7947819-.79268c-.050535-.0508-.1195308-.079-.1912038-.078z" font-variant-ligatures="normal" font-variant-position="normal" font-variant-caps="normal" font-variant-numeric="normal" font-variant-alternates="normal" font-feature-settings="normal" text-indent="0" text-align="start" text-decoration-line="none" text-decoration-style="solid" text-decoration-color="rgb(0,0,0)" text-transform="none" text-orientation="mixed" white-space="normal" shape-padding="0" isolation="auto" mix-blend-mode="normal" solid-color="rgb(0,0,0)" solid-opacity="1" vector-effect="none"/></g></svg>