<svg fill="#1A92D4" height="480pt" viewBox="0 -16 480 480" width="480pt" xmlns="http://www.w3.org/2000/svg"><path d="m416 424c0 4.417969-3.582031 8-8 8h-384c-4.417969 0-8-3.582031-8-8v-344h400v72h16v-128c0-13.253906-10.746094-24-24-24h-384c-13.253906 0-24 10.746094-24 24v400c0 13.253906 10.746094 24 24 24h384c13.253906 0 24-10.746094 24-24v-48h-16zm-392-408h384c4.417969 0 8 3.582031 8 8v40h-400v-40c0-4.417969 3.582031-8 8-8zm0 0"/><path d="m48 32h16v16h-16zm0 0"/><path d="m80 32h16v16h-16zm0 0"/><path d="m112 32h16v16h-16zm0 0"/><path d="m160 112h16v16h-16zm0 0"/><path d="m192 112h16v16h-16zm0 0"/><path d="m224 112h16v16h-16zm0 0"/><path d="m256 112h16v16h-16zm0 0"/><path d="m176 32h176v16h-176zm0 0"/><path d="m456 168h-208c-13.253906 0-24 10.746094-24 24v144c0 13.253906 10.746094 24 24 24h40v40c0 3.234375 1.949219 6.152344 4.9375 7.390625s6.429688.550781 8.71875-1.734375l45.65625-45.65625h108.6875c13.253906 0 24-10.746094 24-24v-144c0-13.253906-10.746094-24-24-24zm8 168c0 4.417969-3.582031 8-8 8h-112c-2.121094 0-4.15625.84375-5.65625 2.34375l-34.34375 34.34375v-28.6875c0-4.417969-3.582031-8-8-8h-48c-4.417969 0-8-3.582031-8-8v-144c0-4.417969 3.582031-8 8-8h208c4.417969 0 8 3.582031 8 8zm0 0"/><path d="m272 216h160v16h-160zm0 0"/><path d="m272 256h160v16h-160zm0 0"/><path d="m272 296h160v16h-160zm0 0"/><path d="m113.34375 155.558594-32 48c-.875 1.316406-1.339844 2.863281-1.34375 4.441406v160c0 22.089844 17.910156 40 40 40s40-17.910156 40-40v-160c-.003906-1.578125-.46875-3.125-1.34375-4.441406l-32-48c-1.570312-2.097656-4.035156-3.332032-6.65625-3.332032s-5.085938 1.234376-6.65625 3.332032zm6.65625 18.839844 17.054688 25.601562h-34.109376zm-24 145.601562v-104h16v88h16v-88h16v104zm48 16v8h-48v-8zm-24 56c-13.253906 0-24-10.746094-24-24v-8h48v8c0 13.253906-10.746094 24-24 24zm0 0"/></svg>