<svg fill="#1A92D4" id="Capa_1" enable-background="new 0 0 512 512" viewBox="0 0 512 512" xmlns="http://www.w3.org/2000/svg"><g><g><path d="m499.939 184.299h-10.653c-.009-.021-.018-.042-.026-.064l7.533-7.533c2.277-2.278 3.532-5.307 3.532-8.528s-1.255-6.251-3.532-8.528l-18.059-18.058c-2.277-2.279-5.307-3.534-8.529-3.534-3.221 0-6.25 1.254-8.528 3.533l-7.533 7.533c-.021-.009-.042-.018-.063-.027v-10.653c0-6.65-5.41-12.061-12.061-12.061h-14.046v-59.509c0-13.072-10.635-23.707-23.707-23.707h-81.267c-4.143 0-7.5 3.358-7.5 7.5s3.357 7.5 7.5 7.5h81.267c4.801 0 8.707 3.906 8.707 8.707v42.724h-397.974v-42.724c0-4.801 3.906-8.707 8.707-8.707h264.293c4.143 0 7.5-3.358 7.5-7.5s-3.357-7.5-7.5-7.5h-264.293c-13.072 0-23.707 10.635-23.707 23.707v214.13c0 4.142 3.357 7.5 7.5 7.5s7.5-3.358 7.5-7.5v-156.407h397.974v143.795c-2.727.438-5.346 1.692-7.444 3.79l-11.284 11.284c-1.056-.465-2.124-.91-3.191-1.328v-15.953c0-7.499-6.101-13.599-13.599-13.599h-34.152c-7.498 0-13.599 6.1-13.599 13.599v15.952c-1.066.418-2.135.863-3.192 1.329l-11.284-11.285c-2.569-2.569-5.983-3.983-9.616-3.983s-7.048 1.415-9.615 3.983l-24.149 24.149c-2.568 2.568-3.982 5.983-3.982 9.616s1.414 7.047 3.982 9.616l11.285 11.284c-.464 1.052-.908 2.12-1.329 3.192h-15.952c-7.498 0-13.599 6.1-13.599 13.599v34.152c0 7.499 6.101 13.599 13.599 13.599h15.952c.421 1.072.865 2.141 1.329 3.193l-10.629 10.629h-248.798c-4.801 0-8.707-3.906-8.707-8.707v-80.499c0-4.142-3.357-7.5-7.5-7.5s-7.5 3.358-7.5 7.5v80.5c0 13.072 10.635 23.707 23.707 23.707h245.015c.672 1.812 1.718 3.479 3.125 4.886l24.149 24.149c2.568 2.569 5.982 3.983 9.615 3.983 3.632 0 7.047-1.415 9.616-3.983l11.284-11.285c1.058.466 2.126.91 3.192 1.329v15.952c0 7.499 6.101 13.599 13.599 13.599h34.152c7.498 0 13.599-6.1 13.599-13.599v-15.953c1.067-.418 2.136-.863 3.191-1.328l11.285 11.285c5.303 5.301 13.929 5.301 19.231 0l24.149-24.15c5.301-5.302 5.301-13.928 0-19.23l-11.285-11.285c.463-1.052.908-2.121 1.328-3.192h15.952c7.498 0 13.599-6.1 13.599-13.599v-34.152c0-7.499-6.101-13.599-13.599-13.599h-15.952c-.421-1.072-.865-2.141-1.328-3.191l11.286-11.286c5.299-5.302 5.299-13.928-.001-19.23l-4.663-4.663c5.588-1.049 9.832-5.957 9.832-11.846v-10.653c.021-.009.043-.018.063-.027l7.533 7.533c2.278 2.278 5.308 3.533 8.528 3.533 3.223 0 6.252-1.255 8.527-3.533l18.06-18.058c2.278-2.278 3.533-5.307 3.533-8.529s-1.255-6.25-3.532-8.528l-7.533-7.533c.009-.021.018-.042.026-.064h10.653c6.65 0 12.061-5.41 12.061-12.061v-25.539c.003-6.651-5.407-12.061-12.058-12.061zm-71.965 5.814c.424-.029.85-.043 1.276-.043 10.509 0 19.059 8.55 19.059 19.059s-8.55 19.059-19.059 19.059c-.427 0-.853-.014-1.276-.043zm10.015 154.923h15.516v31.349h-15.516c-5.608 0-10.727 3.552-12.735 8.839-.509 1.338-1.065 2.677-1.656 3.979-2.343 5.169-1.242 11.316 2.737 15.296l10.979 10.978-22.168 22.168-10.978-10.978c-3.981-3.98-10.126-5.081-15.296-2.738-1.31.594-2.648 1.15-3.979 1.656-5.287 2.008-8.84 7.126-8.84 12.736v15.516h-31.35v-15.516c0-5.61-3.554-10.729-8.842-12.736-1.325-.503-2.663-1.06-3.978-1.655-5.17-2.343-11.316-1.241-15.296 2.738l-10.977 10.978-22.168-22.167 10.979-10.978c3.979-3.979 5.079-10.127 2.736-15.297-.591-1.301-1.147-2.64-1.655-3.976-2.008-5.289-7.125-8.842-12.735-8.842h-15.517v-31.349h15.517c5.61 0 10.729-3.553 12.734-8.839.509-1.339 1.065-2.677 1.656-3.979 2.343-5.17 1.243-11.317-2.736-15.296l-10.979-10.978 22.167-22.167 10.978 10.978c3.981 3.98 10.128 5.079 15.297 2.737 1.313-.595 2.651-1.152 3.977-1.655 5.288-2.008 8.842-7.126 8.842-12.736v-15.516h31.35v15.514c0 5.609 3.553 10.728 8.841 12.736 1.329.505 2.668 1.062 3.976 1.654 5.169 2.343 11.317 1.244 15.298-2.736l10.978-10.978.028.028 22.14 22.139-10.978 10.977c-3.98 3.98-5.081 10.127-2.737 15.299.59 1.3 1.146 2.638 1.655 3.976 2.009 5.288 7.127 8.841 12.735 8.841zm59.011-126.077h-9.712c-4.975 0-9.513 3.147-11.292 7.833-.36.949-.762 1.913-1.191 2.862-2.077 4.579-1.1 10.028 2.431 13.559l6.872 6.872-13.902 13.902-6.871-6.872c-3.532-3.53-8.978-4.508-13.556-2.433-.944.427-1.908.829-2.868 1.193-4.684 1.78-7.83 6.317-7.83 11.292v9.712h-9.618l-1.489-1.489v-32.229c.425.016.85.027 1.276.027 18.78 0 34.059-15.279 34.059-34.059s-15.278-34.059-34.059-34.059c-.426 0-.852.011-1.276.027v-33.718h11.106v9.712c0 4.975 3.146 9.512 7.832 11.292.958.364 1.922.765 2.864 1.191 4.578 2.077 10.027 1.099 13.558-2.432l6.871-6.872 13.902 13.902-6.872 6.872c-3.53 3.531-4.508 8.979-2.433 13.556.432.952.833 1.916 1.193 2.866 1.779 4.684 6.317 7.831 11.292 7.831h9.713z"/><path d="m327.472 91.378c4.143 0 7.5-3.358 7.5-7.5s-3.357-7.5-7.5-7.5h-1.107c-4.143 0-7.5 3.358-7.5 7.5s3.357 7.5 7.5 7.5z"/><path d="m357.365 91.378c4.143 0 7.5-3.358 7.5-7.5s-3.357-7.5-7.5-7.5h-1.107c-4.143 0-7.5 3.358-7.5 7.5s3.357 7.5 7.5 7.5z"/><path d="m387.259 91.378c4.143 0 7.5-3.358 7.5-7.5s-3.357-7.5-7.5-7.5h-1.107c-4.143 0-7.5 3.358-7.5 7.5s3.357 7.5 7.5 7.5z"/><path d="m221.725 272.142h-142.369c-4.143 0-7.5 3.358-7.5 7.5s3.357 7.5 7.5 7.5h142.368c4.143 0 7.5-3.358 7.5-7.5s-3.357-7.5-7.499-7.5z"/><path d="m221.725 308.862h-142.37c-4.143 0-7.5 3.358-7.5 7.5s3.357 7.5 7.5 7.5h142.369c4.143 0 7.5-3.358 7.5-7.5s-3.357-7.5-7.499-7.5z"/><path d="m221.725 345.583h-142.37c-4.143 0-7.5 3.358-7.5 7.5s3.357 7.5 7.5 7.5h142.369c4.143 0 7.5-3.358 7.5-7.5s-3.357-7.5-7.499-7.5z"/><path d="m43.715 287.142h5.4c4.143 0 7.5-3.358 7.5-7.5s-3.357-7.5-7.5-7.5h-5.4c-4.143 0-7.5 3.358-7.5 7.5s3.357 7.5 7.5 7.5z"/><path d="m43.715 323.862h5.4c4.143 0 7.5-3.358 7.5-7.5s-3.357-7.5-7.5-7.5h-5.4c-4.143 0-7.5 3.358-7.5 7.5s3.357 7.5 7.5 7.5z"/><path d="m43.715 360.583h5.4c4.143 0 7.5-3.358 7.5-7.5s-3.357-7.5-7.5-7.5h-5.4c-4.143 0-7.5 3.358-7.5 7.5s3.357 7.5 7.5 7.5z"/><path d="m391.759 222.015v-62.609c0-6.893-5.607-12.5-12.5-12.5h-330.544c-6.893 0-12.5 5.607-12.5 12.5v62.609c0 6.893 5.607 12.5 12.5 12.5h330.544c6.892 0 12.5-5.607 12.5-12.5zm-15-2.5h-325.544v-57.609h325.544z"/><path d="m360.379 317.695c-3.923 0-7.837.54-11.632 1.604-3.988 1.118-6.315 5.258-5.197 9.246 1.119 3.988 5.26 6.314 9.246 5.197 2.478-.695 5.029-1.047 7.583-1.047 15.448 0 28.016 12.567 28.016 28.015s-12.567 28.015-28.016 28.015-28.016-12.567-28.016-28.015c0-2.484.333-4.967.989-7.38 1.087-3.997-1.271-8.118-5.269-9.206-3.993-1.085-8.118 1.271-9.206 5.269-1.005 3.695-1.515 7.503-1.515 11.317 0 23.719 19.297 43.015 43.016 43.015s43.016-19.296 43.016-43.015-19.296-43.015-43.015-43.015z"/></g></g><g/><g/><g/><g/><g/><g/><g/><g/><g/><g/><g/><g/><g/><g/><g/></svg>