<?xml version="1.0" encoding="UTF-8"?>
<svg id="objects" xmlns="http://www.w3.org/2000/svg" viewBox="0 0 500 502.54">
  <defs>
    <style>
      .cls-1 {
        stroke-width: 0px;
      }

      .cls-2 {
        fill: none;
        stroke: #000;
        stroke-linecap: round;
        stroke-linejoin: round;
        stroke-width: 1.45px;
      }
    </style>
  </defs>
  <g>
    <circle class="cls-1" cx="250.04" cy="63.07" r="4.73"/>
    <path class="cls-1" d="M264.15,63.07c0-1.59-1.29-2.88-2.88-2.88s-2.88,1.29-2.88,2.88,1.29,2.88,2.88,2.88,2.88-1.29,2.88-2.88Z"/>
    <path class="cls-1" d="M270.64,63.07c0-.8-.64-1.44-1.44-1.44s-1.44.64-1.44,1.44.64,1.44,1.44,1.44,1.44-.64,1.44-1.44Z"/>
  </g>
  <path class="cls-1" d="M431.89,63.07c0-.8-.64-1.44-1.44-1.44s-1.44.64-1.44,1.44.64,1.44,1.44,1.44,1.44-.64,1.44-1.44Z"/>
  <line class="cls-2" x1="430.01" y1="63.07" x2="269.2" y2="63.07"/>
  <g>
    <path class="cls-1" d="M235.85,63.07c0-1.59,1.29-2.88,2.88-2.88s2.88,1.29,2.88,2.88-1.29,2.88-2.88,2.88-2.88-1.29-2.88-2.88Z"/>
    <path class="cls-1" d="M229.36,63.07c0-.8.64-1.44,1.44-1.44s1.44.64,1.44,1.44-.64,1.44-1.44,1.44-1.44-.64-1.44-1.44Z"/>
    <path class="cls-1" d="M68.11,63.07c0-.8.64-1.44,1.44-1.44s1.44.64,1.44,1.44-.64,1.44-1.44,1.44-1.44-.64-1.44-1.44Z"/>
    <line class="cls-2" x1="69.99" y1="63.07" x2="230.8" y2="63.07"/>
  </g>
</svg>