<?xml version="1.0" encoding="utf-8"?>
<!-- Generator: Adobe Illustrator 28.2.0, SVG Export Plug-In . SVG Version: 6.00 Build 0)  -->
<svg version="1.1" id="Layer_1" xmlns="http://www.w3.org/2000/svg" xmlns:xlink="http://www.w3.org/1999/xlink" x="0px" y="0px"
	 viewBox="0 0 1600 50" style="enable-background:new 0 0 1600 50;" xml:space="preserve">
<style type="text/css">
	.st0{display:none;}
	.st1{display:inline;}
	.st2{fill:#010101;}
	.st3{fill:none;stroke:#010101;stroke-width:1.5193;stroke-linecap:round;stroke-linejoin:round;stroke-miterlimit:10;}
	.st4{fill:none;stroke:#010101;stroke-width:1.4489;stroke-linecap:round;stroke-linejoin:round;stroke-miterlimit:10;}
	
		.st5{display:inline;fill:none;stroke:#010101;stroke-width:1.4489;stroke-linecap:round;stroke-linejoin:round;stroke-miterlimit:10;}
	.st6{display:inline;fill:#010101;}
	
		.st7{display:inline;fill:none;stroke:#010101;stroke-width:1.5193;stroke-linecap:round;stroke-linejoin:round;stroke-miterlimit:10;}
	
		.st8{display:none;fill:none;stroke:#010101;stroke-width:1.5193;stroke-linecap:round;stroke-linejoin:round;stroke-miterlimit:10;}
</style>
<g>
	<g class="st0">
		<g class="st1">
			<path class="st2" d="M11.59,215.94c14.17,0,22.15-10.27,46.57-16.92c-24.42-6.65-32.4-16.92-46.57-16.92
				c-15.56,0-18.24,16.92-18.24,16.92S-3.96,215.94,11.59,215.94z"/>
			<path class="st2" d="M1588.41,215.94c15.56,0,18.24-16.92,18.24-16.92s-2.68-16.92-18.24-16.92c-14.17,0-22.15,10.27-46.57,16.92
				C1566.25,205.67,1574.24,215.94,1588.41,215.94z"/>
		</g>
		<g class="st1">
			<g>
				<path class="st3" d="M844.07,213.81c8.48,6.84,4.5,22.71-5.84,26.14c-10.34,3.44-22.27-4.79-24.45-15.47
					c-2.18-10.68,4.14-21.95,13.52-27.49c9.39-5.53,21.2-6.18,31.69-3.21c25.72,7.29,76.94,70,120.67,48.51
					c45.23-22.23,28.43-92.83-17.38-91.01c-13.97,0.55-26.91,10.67-32.82,23.34c-5.92,12.67-3.6,29.18,6.71,38.63
					c10.31,9.45,28.2,9.81,37.89-0.28c9.69-10.09,7.72-29.27-4.51-36.06"/>
				<g>
					<g>
						<g>
							<path class="st3" d="M755.93,213.82c-8.48,6.84-4.5,22.71,5.84,26.14c10.34,3.44,22.27-4.79,24.45-15.47
								c2.18-10.68-4.14-21.95-13.52-27.49c-9.39-5.53-21.2-6.18-31.69-3.21c-25.72,7.29-76.94,70-120.67,48.51
								c-45.23-22.23-28.43-92.83,17.38-91.01c13.97,0.55,26.91,10.67,32.82,23.34c5.92,12.67,3.6,29.18-6.71,38.63
								c-10.31,9.45-28.2,9.81-37.89-0.28c-9.69-10.09-7.72-29.27,4.51-36.06"/>
						</g>
					</g>
				</g>
			</g>
			<polygon class="st2" points="782.36,147.04 800,120.15 817.64,147.04 800,173.94 			"/>
		</g>
		<g class="st1">
			<line class="st4" x1="48.71" y1="199.02" x2="556.14" y2="199.02"/>
			<line class="st4" x1="1043.86" y1="199.02" x2="1551.29" y2="199.02"/>
		</g>
	</g>
	<g class="st0">
		<circle class="st5" cx="13.95" cy="350.7" r="16.2"/>
		<circle class="st5" cx="800" cy="350.7" r="29.7"/>
		<path class="st6" d="M815.46,350.7c0,8.54-6.92,15.46-15.46,15.46c-8.54,0-15.46-6.92-15.46-15.46s6.92-15.46,15.46-15.46
			C808.54,335.24,815.46,342.16,815.46,350.7z"/>
		<line class="st5" x1="770.3" y1="350.7" x2="30.15" y2="350.7"/>
		<circle class="st5" cx="1586.05" cy="350.7" r="16.2"/>
		<line class="st5" x1="829.7" y1="350.7" x2="1569.85" y2="350.7"/>
	</g>
	<g class="st0">
		<path class="st5" d="M1602.26,551h-289.73c0-121.34-474.92,72.43-512.53-36.18C762.39,623.43,287.47,429.66,287.47,551H-2.26"/>
		<polygon class="st6" points="785.3,471.32 800,448.91 814.7,471.32 800,493.73 		"/>
	</g>
	<g class="st0">
		<g class="st1">
			<g>
				<path class="st4" d="M849.36,737.77c-27.91,0-53.34-16.93-60.31-43.95c-2.47-9.58-2.24-20.06,1.93-29.03
					c4.17-8.97,12.56-16.18,22.34-17.7c9.78-1.52,20.55,3.35,24.84,12.26c4.29,8.91,0.74,21.15-8.17,25.44"/>
				<path class="st4" d="M1584.82,696.73c2.59,4.29,1.27,10.34-2.55,13.57c-3.83,3.23-9.62,3.65-14.14,1.48
					c-7.59-3.66-10.62-14.08-6.96-21.68c3.66-7.59,12.84-11.74,21.17-10.45c8.33,1.3,17.86,5.96,19.57,19.14
					c3.69,28.38-22.78,39.15-45.96,39.15l-664.26-0.17c-24.95,0-36.86-18.35-36.86-29.09c0-7.79,4.93-16.39,16.4-16.39"/>
			</g>
			<path class="st4" d="M849.36,737.77c24.95,0,36.86-18.35,36.86-29.09c0-7.79-4.93-16.39-16.4-16.39"/>
		</g>
		<g class="st1">
			<g>
				<path class="st4" d="M750.64,737.77c27.91,0,53.34-16.93,60.31-43.95c2.47-9.58,2.24-20.06-1.93-29.03
					c-4.17-8.97-12.56-16.18-22.34-17.7c-9.78-1.52-20.55,3.35-24.84,12.26c-4.29,8.91-0.74,21.15,8.17,25.44"/>
				<path class="st4" d="M15.18,696.73c-2.59,4.29-1.27,10.34,2.55,13.57c3.83,3.23,9.62,3.65,14.14,1.48
					c7.59-3.66,10.62-14.08,6.96-21.68c-3.66-7.59-12.84-11.74-21.17-10.45c-8.33,1.3-17.86,5.96-19.57,19.14
					c-3.69,28.38,22.78,39.15,45.96,39.15l664.26-0.17c24.95,0,36.86-18.35,36.86-29.09c0-7.79-4.93-16.39-16.4-16.39"/>
			</g>
			<path class="st4" d="M750.64,737.77c-24.95,0-36.86-18.35-36.86-29.09c0-7.79,4.93-16.39,16.4-16.39"/>
		</g>
	</g>
	<g class="st0">
		<g class="st1">
			<g>
				<path class="st3" d="M1545.89,907.05c25.41,0,48.56-15.41,54.91-40.02c2.25-8.72,2.04-18.26-1.76-26.43
					c-3.79-8.17-11.44-14.73-20.34-16.12s-18.71,3.05-22.62,11.16c-3.91,8.11-0.68,19.25,7.44,23.16
					c4.82,2.32,11.02,1.88,15.11-1.58s5.49-9.92,2.73-14.51"/>
				<path class="st3" d="M836.82,869.69c-2.35,3.91-1.16,9.41,2.32,12.36c3.48,2.94,8.76,3.33,12.87,1.34
					c6.91-3.33,9.67-12.82,6.34-19.73c-3.33-6.91-11.69-10.69-19.27-9.51c-7.58,1.18-16.26,5.43-17.82,17.43
					c-3.36,25.84,20.74,35.64,41.85,35.64l644.25-0.16c22.71,0,33.56-16.7,33.56-26.48c0-7.09-4.49-14.93-14.94-14.93"/>
			</g>
			<path class="st3" d="M1545.89,907.05c-22.71,0-33.56-16.7-33.56-26.48c0-7.09,4.49-14.93,14.94-14.93"/>
		</g>
		<g class="st1">
			<g>
				<path class="st3" d="M54.11,907.05c-25.41,0-48.56-15.41-54.91-40.02c-2.25-8.72-2.04-18.26,1.76-26.43
					c3.79-8.17,11.44-14.73,20.34-16.12c8.9-1.38,18.71,3.05,22.62,11.16c3.91,8.11,0.68,19.25-7.44,23.16
					c-4.82,2.32-11.02,1.88-15.11-1.58s-5.49-9.92-2.73-14.51"/>
				<path class="st3" d="M763.18,869.69c2.35,3.91,1.16,9.41-2.32,12.36c-3.48,2.94-8.76,3.33-12.87,1.34
					c-6.91-3.33-9.67-12.82-6.34-19.73c3.33-6.91,11.69-10.69,19.27-9.51c7.58,1.18,16.26,5.43,17.82,17.43
					c3.36,25.84-20.74,35.64-41.85,35.64l-644.25-0.16c-22.71,0-33.56-16.7-33.56-26.48c0-7.09,4.49-14.93,14.94-14.93"/>
			</g>
			<path class="st3" d="M54.11,907.05c22.71,0,33.56-16.7,33.56-26.48c0-7.09-4.49-14.93-14.94-14.93"/>
		</g>
		<path class="st7" d="M810.47,842.11c0-5.78-4.69-10.47-10.47-10.47c-5.78,0-10.47,4.69-10.47,10.47c0,5.78,4.69,10.47,10.47,10.47
			C805.78,852.58,810.47,847.89,810.47,842.11z"/>
	</g>
	<path class="st8" d="M1572.28,1212.09c2.76,4.59,1.36,11.05-2.73,14.51c-4.09,3.46-10.28,3.9-15.11,1.58
		c-8.11-3.91-11.35-15.05-7.44-23.16c3.91-8.11,13.72-12.55,22.62-11.16c8.9,1.38,16.54,7.95,20.34,16.12
		c3.79,8.17,4.01,17.71,1.76,26.43c-6.35,24.6-29.5,40.02-54.91,40.02c-22.71,0-33.56-16.7-33.56-26.48
		c0-7.09,4.49-14.93,14.94-14.93h-1.29c10.45,0,14.94,7.84,14.94,14.93c0,9.78-10.85,26.48-33.56,26.48l-698.44,0
		c-49.36-27.02-20.94-69.9,0-45.3h0.35c20.94-24.59,49.36,18.28,0,45.3l-698.44,0c-22.71,0-33.56-16.7-33.56-26.48
		c0-7.09,4.49-14.93,14.94-14.93h-1.29c10.45,0,14.94,7.84,14.94,14.93c0,9.78-10.85,26.48-33.56,26.48
		c-25.41,0-48.56-15.41-54.91-40.02c-2.25-8.72-2.04-18.26,1.76-26.43c3.79-8.17,11.44-14.73,20.34-16.12
		c8.9-1.38,18.71,3.05,22.62,11.16c3.91,8.11,0.68,19.25-7.44,23.16c-4.82,2.33-11.02,1.88-15.11-1.58s-5.49-9.92-2.73-14.51"/>
	<path class="st8" d="M11.6,1101.03c-2.26-3.76-1.12-9.05,2.23-11.88c3.35-2.83,8.42-3.2,12.37-1.29c6.65,3.2,9.29,12.32,6.09,18.97
		c-3.2,6.65-11.24,10.28-18.53,9.14c-7.29-1.13-13.55-6.51-16.66-13.2c-3.11-6.69-3.28-14.51-1.44-21.65
		c5.2-20.15,24.16-32.77,44.97-32.77h727.94c23.85,0,31.41-22.47,31.41-22.47s7.57,22.47,31.41,22.47h727.94
		c20.81,0,39.77,12.62,44.97,32.77c1.84,7.14,1.67,14.96-1.44,21.65c-3.11,6.69-9.37,12.07-16.66,13.2
		c-7.29,1.13-15.32-2.5-18.53-9.14c-3.2-6.65-0.55-15.77,6.09-18.97c3.95-1.9,9.02-1.54,12.37,1.29c3.35,2.83,4.5,8.12,2.23,11.88"
		/>
	<g>
		<g>
			<circle class="st2" cx="800.17" cy="26.35" r="20.77"/>
			<path class="st2" d="M862.05,26.35c0-6.98-5.66-12.63-12.63-12.63c-6.98,0-12.63,5.66-12.63,12.63c0,6.98,5.66,12.63,12.63,12.63
				C856.4,38.98,862.05,33.32,862.05,26.35z"/>
			<path class="st2" d="M890.53,26.35c0-3.49-2.83-6.32-6.32-6.32s-6.32,2.83-6.32,6.32s2.83,6.32,6.32,6.32
				S890.53,29.84,890.53,26.35z"/>
		</g>
		<g>
			<path class="st2" d="M1597.87,26.35c0-3.49-2.83-6.32-6.32-6.32c-3.49,0-6.32,2.83-6.32,6.32s2.83,6.32,6.32,6.32
				C1595.04,32.66,1597.87,29.84,1597.87,26.35z"/>
		</g>
		<line class="st4" x1="1589.62" y1="26.35" x2="884.21" y2="26.35"/>
		<g>
			<path class="st2" d="M737.95,26.35c0-6.98,5.66-12.63,12.63-12.63c6.98,0,12.63,5.66,12.63,12.63c0,6.98-5.66,12.63-12.63,12.63
				C743.6,38.98,737.95,33.32,737.95,26.35z"/>
			<path class="st2" d="M709.47,26.35c0-3.49,2.83-6.32,6.32-6.32c3.49,0,6.32,2.83,6.32,6.32s-2.83,6.32-6.32,6.32
				C712.3,32.66,709.47,29.84,709.47,26.35z"/>
			<g>
				<path class="st2" d="M2.13,26.35c0-3.49,2.83-6.32,6.32-6.32c3.49,0,6.32,2.83,6.32,6.32s-2.83,6.32-6.32,6.32
					C4.96,32.66,2.13,29.84,2.13,26.35z"/>
			</g>
			<line class="st4" x1="10.38" y1="26.35" x2="715.79" y2="26.35"/>
		</g>
	</g>
	<g class="st0">
		<g class="st1">
			<g>
				<path class="st2" d="M54.62,1476.75c20.12,0,23.58-21.88,23.58-21.88s-3.47-21.88-23.58-21.88c-18.32,0-28.65,13.28-60.23,21.88
					C25.97,1463.47,36.3,1476.75,54.62,1476.75z"/>
				<circle class="st2" cx="88.11" cy="1454.86" r="14.29"/>
				<path class="st2" d="M102.4,1454.86c0,4.34,3.52,7.86,7.86,7.86s7.86-3.52,7.86-7.86s-3.52-7.86-7.86-7.86
					S102.4,1450.52,102.4,1454.86z"/>
				<line class="st3" x1="110.04" y1="1454.86" x2="748.08" y2="1454.86"/>
				<path class="st3" d="M745.02,1454.86c21.9,0,38.79-6.91,42.86-22.67c1.44-5.59,1.31-11.7-1.12-16.94
					c-2.43-5.23-7.33-9.44-13.03-10.33c-5.7-0.89-11.99,1.95-14.49,7.15c-2.51,5.2-0.43,12.34,4.77,14.84"/>
			</g>
			<g>
				<path class="st2" d="M1545.38,1476.75c-20.12,0-23.58-21.88-23.58-21.88s3.47-21.88,23.58-21.88
					c18.32,0,28.65,13.28,60.23,21.88C1574.03,1463.47,1563.7,1476.75,1545.38,1476.75z"/>
				<circle class="st2" cx="1511.89" cy="1454.86" r="14.29"/>
				<path class="st2" d="M1497.6,1454.86c0,4.34-3.52,7.86-7.86,7.86c-4.34,0-7.86-3.52-7.86-7.86s3.52-7.86,7.86-7.86
					C1494.08,1447,1497.6,1450.52,1497.6,1454.86z"/>
				<line class="st3" x1="1489.96" y1="1454.86" x2="851.92" y2="1454.86"/>
				<path class="st3" d="M854.98,1454.86c-21.9,0-38.79-6.91-42.86-22.67c-1.44-5.59-1.31-11.7,1.12-16.94
					c2.43-5.23,7.33-9.44,13.03-10.33c5.7-0.89,11.99,1.95,14.49,7.15c2.51,5.2,0.43,12.34-4.77,14.84"/>
			</g>
		</g>
		<path class="st7" d="M745.02,1454.86c21.9,0,38.79,6.91,42.86,22.67c1.44,5.59,1.31,11.7-1.12,16.94
			c-2.43,5.24-7.33,9.44-13.03,10.33c-5.7,0.89-11.99-1.95-14.49-7.15c-2.51-5.2-0.43-12.34,4.77-14.84"/>
		<path class="st7" d="M854.98,1454.86c-21.9,0-38.79,6.91-42.86,22.67c-1.44,5.59-1.31,11.7,1.12,16.94
			c2.43,5.24,7.33,9.44,13.03,10.33c5.7,0.89,11.99-1.95,14.49-7.15c2.51-5.2,0.43-12.34-4.77-14.84"/>
	</g>
	<g class="st0">
		<g class="st1">
			<g>
				<g>
					<line class="st3" x1="237.64" y1="1661.37" x2="697.07" y2="1661.37"/>
					<path class="st3" d="M694.82,1661.37c16.1,0,28.52-5.08,31.52-16.67c1.06-4.11,0.96-8.6-0.83-12.45
						c-1.79-3.85-5.39-6.94-9.58-7.59c-4.19-0.65-8.81,1.44-10.66,5.26c-1.84,3.82-0.32,9.07,3.5,10.91"/>
				</g>
				<path class="st3" d="M694.82,1661.37c16.1,0,28.52,5.08,31.52,16.67c1.06,4.11,0.96,8.6-0.83,12.45
					c-1.79,3.85-5.39,6.94-9.58,7.59c-4.19,0.65-8.81-1.44-10.66-5.26c-1.84-3.82-0.32-9.07,3.5-10.91"/>
			</g>
			<g>
				<g>
					<line class="st3" x1="491.51" y1="1661.37" x2="32.08" y2="1661.37"/>
					<path class="st3" d="M34.33,1661.37c-16.1,0-28.52-5.08-31.52-16.67c-1.06-4.11-0.96-8.6,0.83-12.45
						c1.79-3.85,5.39-6.94,9.58-7.59c4.19-0.65,8.81,1.44,10.66,5.26c1.84,3.82,0.32,9.07-3.5,10.91"/>
				</g>
				<path class="st3" d="M34.33,1661.37c-16.1,0-28.52,5.08-31.52,16.67c-1.06,4.11-0.96,8.6,0.83,12.45
					c1.79,3.85,5.39,6.94,9.58,7.59c4.19,0.65,8.81-1.44,10.66-5.26c1.84-3.82,0.32-9.07-3.5-10.91"/>
			</g>
		</g>
		<g class="st1">
			<g>
				<g>
					<line class="st3" x1="1108.49" y1="1661.37" x2="1567.92" y2="1661.37"/>
					<path class="st3" d="M1565.67,1661.37c16.1,0,28.52-5.08,31.52-16.67c1.06-4.11,0.96-8.6-0.83-12.45
						c-1.79-3.85-5.39-6.94-9.58-7.59c-4.19-0.65-8.81,1.44-10.66,5.26c-1.84,3.82-0.32,9.07,3.5,10.91"/>
				</g>
				<path class="st3" d="M1565.67,1661.37c16.1,0,28.52,5.08,31.52,16.67c1.06,4.11,0.96,8.6-0.83,12.45
					c-1.79,3.85-5.39,6.94-9.58,7.59c-4.19,0.65-8.81-1.44-10.66-5.26c-1.84-3.82-0.32-9.07,3.5-10.91"/>
			</g>
			<g>
				<g>
					<line class="st3" x1="1362.36" y1="1661.37" x2="902.93" y2="1661.37"/>
					<path class="st3" d="M905.18,1661.37c-16.1,0-28.52-5.08-31.52-16.67c-1.06-4.11-0.96-8.6,0.83-12.45
						c1.79-3.85,5.39-6.94,9.58-7.59c4.19-0.65,8.81,1.44,10.66,5.26c1.84,3.82,0.32,9.07-3.5,10.91"/>
				</g>
				<path class="st3" d="M905.18,1661.37c-16.1,0-28.52,5.08-31.52,16.67c-1.06,4.11-0.96,8.6,0.83,12.45
					c1.79,3.85,5.39,6.94,9.58,7.59c4.19,0.65,8.81-1.44,10.66-5.26c1.84-3.82,0.32-9.07-3.5-10.91"/>
			</g>
		</g>
		<g class="st1">
			<circle class="st2" cx="800.15" cy="1661.37" r="18"/>
			<path class="st2" d="M853.77,1661.37c0-6.05-4.9-10.95-10.95-10.95s-10.95,4.9-10.95,10.95c0,6.05,4.9,10.95,10.95,10.95
				S853.77,1667.42,853.77,1661.37z"/>
			<path class="st2" d="M746.23,1661.37c0-6.05,4.9-10.95,10.95-10.95s10.95,4.9,10.95,10.95c0,6.05-4.9,10.95-10.95,10.95
				S746.23,1667.42,746.23,1661.37z"/>
		</g>
	</g>
</g>
</svg>
