<?xml version="1.0" encoding="UTF-8"?>
<svg id="Layer_1" data-name="Layer 1" xmlns="http://www.w3.org/2000/svg" viewBox="0 0 1613.29 1693.39">
  <defs>
    <style>
      .cls-1 {
        fill: #010101;
        stroke-width: 0px;
      }

      .cls-2 {
        fill: none;
        stroke: #010101;
        stroke-linecap: round;
        stroke-linejoin: round;
        stroke-width: 1.45px;
      }
    </style>
  </defs>
  <g>
    <circle class="cls-1" cx="806.82" cy="20.77" r="20.77"/>
    <path class="cls-1" d="M868.7,20.77c0-6.98-5.66-12.63-12.63-12.63s-12.63,5.66-12.63,12.63,5.66,12.63,12.63,12.63,12.63-5.66,12.63-12.63Z"/>
    <path class="cls-1" d="M897.17,20.77c0-3.49-2.83-6.32-6.32-6.32s-6.32,2.83-6.32,6.32,2.83,6.32,6.32,6.32,6.32-2.83,6.32-6.32Z"/>
  </g>
  <path class="cls-1" d="M1604.51,20.77c0-3.49-2.83-6.32-6.32-6.32s-6.32,2.83-6.32,6.32,2.83,6.32,6.32,6.32,6.32-2.83,6.32-6.32Z"/>
  <line class="cls-2" x1="1596.27" y1="20.77" x2="890.86" y2="20.77"/>
  <g>
    <path class="cls-1" d="M744.59,20.77c0-6.98,5.66-12.63,12.63-12.63s12.63,5.66,12.63,12.63-5.66,12.63-12.63,12.63-12.63-5.66-12.63-12.63Z"/>
    <path class="cls-1" d="M716.11,20.77c0-3.49,2.83-6.32,6.32-6.32s6.32,2.83,6.32,6.32-2.83,6.32-6.32,6.32-6.32-2.83-6.32-6.32Z"/>
    <path class="cls-1" d="M8.77,20.77c0-3.49,2.83-6.32,6.32-6.32s6.32,2.83,6.32,6.32-2.83,6.32-6.32,6.32-6.32-2.83-6.32-6.32Z"/>
    <line class="cls-2" x1="17.02" y1="20.77" x2="722.43" y2="20.77"/>
  </g>
</svg>