<svg id="Layer_1" enable-background="new 0 0 512 512" height="512" viewBox="0 0 512 512" width="512" xmlns="http://www.w3.org/2000/svg"><g id="Layer_2_00000159440403570670159640000010030531210288562324_"><g id="dollar"><path d="m344.7 428c-61.5 36.7-49.9-7.7-50.9 69.9 0 10.7-3.4 14.1-14.1 14.1-17.6 0-35.3 0-53 0-9.3 0-12.8-3.5-12.8-12.8 0-14.9 0-29.8 0-44-16.5-3.2-32.8-5.2-48.4-9.5-15.8-4.4-31-10.8-46.2-16.9-7.6-3.1-9-7.1-6.9-15.2 5.6-21.8 11.2-43.6 16.9-65.5 2.4-9.4 8-12.3 16.6-7.9 35.4 17.8 76.5 30 116.2 21.8 20.8-4.2 35.7-23.3 18.8-41.6-10.5-10.9-24.5-16-38.1-21.5-20.3-8.2-41.1-15.5-60.8-25-72.8-30.6-90.3-128-31.4-181.3 17.3-15.5 37.3-25.8 59.7-31.5 5-1.3 6.9-3.3 6.7-8.7-.5-12.9-.2-25.9-.1-38.8.1-9.9 3.7-13.5 13.4-13.6h52.3c10.2 0 13.6 3.5 13.5 14 0 11.4.1 22.8-.1 34.1-.1 4.2 1 5.8 5.5 6.1 25.5 1.7 50.5 8 73.8 18.5 8.1 3.6 10 7.2 7.8 15.7-5.4 20.7-10.9 41.3-16.4 61.9-2.9 10.7-8.1 13.3-18.3 8.3-32.5-15.4-70.8-24.5-105.9-13.7-18.1 6.7-20.5 24.7-4.3 35 13.4 8.6 28.2 15.2 43 21.3 22.1 9.1 44.5 17.2 65.2 29.5 74.5 44.2 70.4 153.8-1.7 197.3z"/></g></g></svg>