<svg fill="#229de0" height="496pt" viewBox="0 -8 496.008 496" width="496pt" xmlns="http://www.w3.org/2000/svg"><path d="m489.953125 295.957031h-105.730469c-3.335937 0-6.046875 2.6875-6.046875 6v48.75h-43.65625v-131.542969h48.089844c3.199219 0 5.804687-2.488281 5.804687-5.527343v-156.511719h-274.277343v156.503906c0 3.046875 2.597656 5.527344 5.808593 5.527344h46.597657v131.542969h-48.71875v-48.75c0-3.3125-2.710938-6-6.046875-6h-105.730469c-3.335937.007812-6.046875 2.695312-6.046875 6.007812v104.261719c0 3.3125 2.710938 6 6.046875 6h105.730469c3.335937 0 6.046875-2.6875 6.046875-6v-39.511719h56.785156c2.117187 0 4.199219-.847656 5.703125-2.34375 1.519531-1.503906 2.359375-3.519531 2.359375-5.65625v-139.542969h60.535156v144.574219h-42.992187c-3.335938 0-6.046875 2.691407-6.046875 6v104.265625c0 3.3125 2.710937 6 6.046875 6h105.730468c3.335938 0 6.046876-2.6875 6.046876-6v-104.265625c0-3.308593-2.710938-6-6.046876-6h-46.601562v-144.574219h59.054688v139.542969c0 2.136719.839843 4.152344 2.363281 5.65625 1.503906 1.496094 3.574219 2.34375 5.703125 2.34375h51.71875v39.511719c0 3.3125 2.710937 6 6.046875 6h105.730469c3.335937 0 6.046874-2.6875 6.046874-6v-104.261719c-.007812-3.3125-2.71875-6-6.054687-6zm-445.777344 81.183594-21.054687 12.070313-.9375.378906-2.191406-6.347656 14.238281-8.847657-14.238281-8.847656 2.238281-6.496094 21.953125 12.59375v5.496094zm0-40.609375-21.054687 12.074219-.9375.375-2.191406-6.34375 14.238281-8.847657-14.238281-8.847656 2.238281-6.496094 21.953125 12.589844v5.496094zm28.289063 41.671875h-15.585938v-7.671875h15.585938zm0-40.605469h-15.585938v-7.671875h15.585938zm26.167968 40.605469h-15.585937v-7.671875h15.585937zm0-40.605469h-15.585937v-7.671875h15.585937zm139.710938 107.328125-21.0625 12.070313-.9375.375-2.191406-6.34375 14.238281-8.847656-14.238281-8.847657 2.238281-6.496093 21.953125 12.59375zm0-40.609375-21.0625 12.070313-.9375.378906-2.191406-6.34375 14.238281-8.851563-14.238281-8.847656 2.238281-6.496094 21.953125 12.59375zm-12.121094-249.097656-4.621094 13.359375-36.691406-21.238281v-10.253906l36.691406-21.242188 4.621094 13.359375-21.574218 13.007813zm40.410156 290.769531h-15.585937v-7.671875h15.585937zm10.582032-48.28125h15.585937v7.671875h-15.585937zm0 40.609375h15.585937v7.671875h-15.585937zm-10.582032-40.609375v7.671875h-15.585937v-7.671875zm-20.664062-218.503906h-15.785156l26.550781-73.992187h15.609375zm71.664062-31.871094-36.6875 21.238281-4.609374-13.359374 21.574218-13.007813-21.574218-13.007813 4.609374-13.359374 36.6875 21.238281zm104.71875 229.808594-21.0625 12.070313-.9375.378906-2.191406-6.347656 14.238282-8.847657-14.238282-8.847656 2.238282-6.496094 21.953124 12.59375zm0-40.609375-21.0625 12.074219-.9375.375-2.191406-6.34375 14.238282-8.847657-14.238282-8.847656 2.238282-6.496094 21.953124 12.589844zm28.289063 41.671875h-15.585937v-7.671875h15.585937zm0-40.605469h-15.585937v-7.671875h15.585937zm26.167969 40.605469h-15.585938v-7.671875h15.585938zm0-40.605469h-15.585938v-7.671875h15.585938zm0 0"/><path d="m388.425781 5.523438c0-3.046876-2.609375-5.51953175-5.808593-5.51953175h-262.601563c-3.246094 0-5.878906 2.51171875-5.878906 5.60156275v39.519531h274.289062zm-83.136719 29.320312c-6.738281 0-12.199218-5.382812-12.199218-12.03125s5.460937-12.03125 12.199218-12.03125c6.734376 0 12.199219 5.382812 12.199219 12.03125s-5.464843 12.03125-12.199219 12.03125zm31.136719 0c-6.738281 0-12.203125-5.382812-12.203125-12.03125s5.464844-12.03125 12.203125-12.03125c6.734375 0 12.199219 5.382812 12.199219 12.03125s-5.464844 12.03125-12.199219 12.03125zm31.132813 0c-6.734375 0-12.199219-5.382812-12.199219-12.03125s5.464844-12.03125 12.199219-12.03125c6.738281 0 12.203125 5.382812 12.203125 12.03125s-5.464844 12.03125-12.203125 12.03125zm0 0"/></svg>