<?xml version="1.0" encoding="utf-8"?>
<!-- Generator: Adobe Illustrator 27.5.0, SVG Export Plug-In . SVG Version: 6.00 Build 0)  -->
<svg version="1.1" xmlns="http://www.w3.org/2000/svg" xmlns:xlink="http://www.w3.org/1999/xlink" x="0px" y="0px"
	 viewBox="0 0 500 500" style="enable-background:new 0 0 500 500;" xml:space="preserve">
<g id="Background_Complete">
	<g>
		<g>
			<rect y="382.398" style="fill:#EBEBEB;" width="500" height="0.25"/>
			<path style="fill:#EBEBEB;" d="M237.014,337.8H43.915c-3.147,0-5.708-2.561-5.708-5.708V60.66c0-3.147,2.561-5.708,5.708-5.708
				h193.099c3.146,0,5.707,2.561,5.707,5.708v271.432C242.721,335.239,240.16,337.8,237.014,337.8z M43.915,55.203
				c-3.01,0-5.458,2.448-5.458,5.458v271.432c0,3.01,2.448,5.458,5.458,5.458h193.099c3.009,0,5.457-2.448,5.457-5.458V60.66
				c0-3.009-2.448-5.458-5.457-5.458H43.915z"/>
			<path style="fill:#EBEBEB;" d="M453.31,337.8H260.212c-3.147,0-5.707-2.561-5.707-5.708V60.66c0-3.147,2.561-5.708,5.707-5.708
				H453.31c3.148,0,5.708,2.561,5.708,5.708v271.432C459.019,335.239,456.458,337.8,453.31,337.8z M260.212,55.203
				c-3.009,0-5.457,2.448-5.457,5.458v271.432c0,3.01,2.448,5.458,5.457,5.458H453.31c3.01,0,5.458-2.448,5.458-5.458V60.66
				c0-3.009-2.448-5.458-5.458-5.458H260.212z"/>
		</g>
		<g>
			<rect x="418.333" y="391.922" style="fill:#EBEBEB;" width="31.568" height="0.25"/>
			<rect x="301.926" y="389.208" style="fill:#EBEBEB;" width="33.408" height="0.25"/>
			<rect x="396.586" y="401.208" style="fill:#EBEBEB;" width="62.433" height="0.25"/>
			<rect x="52.459" y="399.528" style="fill:#EBEBEB;" width="19.235" height="0.25"/>
			<rect x="80.597" y="399.528" style="fill:#EBEBEB;" width="30.292" height="0.25"/>
			<rect x="189.578" y="395.306" style="fill:#EBEBEB;" width="54.556" height="0.25"/>
		</g>
	</g>
	<g>
		<g>
			<g>
				<path style="fill:#E0E0E0;" d="M350.243,272.622H91.724c-5.847,0-10.381-4.784-10.076-10.631l9.21-176.399
					c0.305-5.847,5.339-10.631,11.186-10.631h258.519c5.847,0,10.382,4.784,10.076,10.631l-9.21,176.399
					C361.124,267.838,356.09,272.622,350.243,272.622z"/>
				<g>
					<path style="fill:#F0F0F0;" d="M349.414,272.622H90.895c-5.847,0-10.382-4.784-10.076-10.631l9.21-176.399
						c0.305-5.847,5.339-10.631,11.186-10.631h258.519c5.847,0,10.381,4.784,10.076,10.631l-9.21,176.399
						C360.295,267.838,355.261,272.622,349.414,272.622z"/>
					<path style="fill:#E0E0E0;" d="M359.456,80.276H100.937c-0.292,0-0.583,0.012-0.87,0.035
						c-6.676,0.544-6.575,10.596,0.095,10.596h258.96c6.67,0,7.821-10.052,1.202-10.596
						C360.038,80.288,359.749,80.276,359.456,80.276z"/>
					<path style="fill:#FAFAFA;" d="M107.01,85.592c-0.07,1.346-1.218,2.437-2.564,2.437c-1.346,0-2.38-1.091-2.31-2.437
						c0.07-1.346,1.218-2.437,2.565-2.437C106.046,83.155,107.08,84.246,107.01,85.592z"/>
					<path style="fill:#FAFAFA;" d="M115.301,85.592c-0.07,1.346-1.218,2.437-2.564,2.437s-2.38-1.091-2.31-2.437
						c0.07-1.346,1.218-2.437,2.564-2.437C114.337,83.155,115.371,84.246,115.301,85.592z"/>
					<path style="fill:#FAFAFA;" d="M123.591,85.592c-0.07,1.346-1.218,2.437-2.564,2.437c-1.346,0-2.38-1.091-2.31-2.437
						c0.07-1.346,1.218-2.437,2.564-2.437S123.661,84.246,123.591,85.592z"/>
				</g>
				<path style="fill:#FFFFFF;" d="M344.747,255.016H97.4c-2.129,0-3.764-1.726-3.653-3.854l7.574-145.065
					c0.111-2.129,1.927-3.854,4.055-3.854h247.347c2.129,0,3.764,1.726,3.653,3.854l-7.574,145.065
					C348.691,253.291,346.876,255.016,344.747,255.016z"/>
			</g>
		</g>
		<g>
			<path style="fill:#EBEBEB;" d="M428.061,140.908H182.097c-5.504,0-10.243,4.504-10.531,10.008l-8.87,169.893
				c-0.287,5.504,3.981,10.008,9.486,10.008h245.964c5.504,0,10.243-4.504,10.531-10.008l8.87-169.893
				C437.834,145.411,433.565,140.908,428.061,140.908z"/>
			<path style="fill:#FFFFFF;" d="M418.32,327.48c3.679,0,6.828-2.993,7.02-6.672l8.87-169.893c0.192-3.679-2.645-6.672-6.324-6.672
				H181.923c-3.679,0-6.828,2.993-7.02,6.672l-8.87,169.893c-0.192,3.679,2.645,6.672,6.324,6.672H418.32z"/>
			<path style="opacity:0.4;fill:#EBEBEB;" d="M203.563,274.253h189.108c6.25,0,11.632-5.114,11.958-11.365l3.923-75.132
				c0.326-6.25-4.521-11.365-10.771-11.365H208.673c-6.251,0-11.632,5.114-11.958,11.365l-3.923,75.132
				C192.466,269.139,197.313,274.253,203.563,274.253z"/>
			<path style="opacity:0.6;fill:#F0F0F0;" d="M326.923,297.588l-1.561,29.893h-60.048l1.561-29.893
				c0.272-5.212,4.718-9.436,9.929-9.436h41.175C323.191,288.151,327.195,292.376,326.923,297.588z"/>
			<path style="opacity:0.6;fill:#F0F0F0;" d="M251.029,297.588l-1.561,29.893H189.42l1.561-29.893
				c0.272-5.212,4.718-9.436,9.929-9.436h41.175C247.296,288.151,251.301,292.376,251.029,297.588z"/>
			<path style="opacity:0.6;fill:#F0F0F0;" d="M402.817,297.588l-1.561,29.893h-60.048l1.561-29.893
				c0.272-5.212,4.717-9.436,9.929-9.436h41.175C399.085,288.151,403.09,292.376,402.817,297.588z"/>
			<path style="opacity:0.9;fill:#EBEBEB;" d="M300.639,235.297h80.763c4.335,0,8.067-3.547,8.294-7.882v0
				c0.226-4.335-3.135-7.882-7.471-7.882h-80.763c-4.335,0-8.067,3.547-8.294,7.882v0
				C292.942,231.75,296.303,235.297,300.639,235.297z"/>
			<path style="opacity:0.9;fill:#EBEBEB;" d="M326.787,259.236h53.365c4.335,0,8.067-3.547,8.294-7.882l0,0
				c0.226-4.335-3.135-7.882-7.471-7.882H327.61c-4.335,0-8.067,3.547-8.294,7.882l0,0
				C319.09,255.689,322.452,259.236,326.787,259.236z"/>
			<path style="fill:#EBEBEB;" d="M217.936,161.112h-17.421c-1.325,0-2.353-1.084-2.284-2.409l0,0
				c0.069-1.325,1.21-2.409,2.535-2.409h17.421c1.325,0,2.353,1.084,2.284,2.409l0,0
				C220.402,160.028,219.262,161.112,217.936,161.112z"/>
			<path style="fill:#EBEBEB;" d="M228.256,158.703c-0.11,2.098,1.503,3.799,3.601,3.799c2.098,0,3.888-1.701,3.998-3.799
				c0.109-2.098-1.503-3.799-3.601-3.799C230.155,154.904,228.365,156.605,228.256,158.703z"/>
			<path style="fill:#EBEBEB;" d="M400.123,162.595h7.89c1.018,0,1.895-0.833,1.949-1.852l0.213-4.08
				c0.053-1.019-0.737-1.852-1.755-1.852h-7.89c-1.019,0-1.895,0.833-1.949,1.852l-0.213,4.08
				C398.315,161.762,399.105,162.595,400.123,162.595z"/>
			<path style="fill:#F5F5F5;" d="M368.282,159.908h19.484c0.663,0,1.233-0.542,1.267-1.205l0,0
				c0.035-0.663-0.479-1.205-1.142-1.205h-19.484c-0.663,0-1.233,0.542-1.268,1.205l0,0
				C367.105,159.365,367.619,159.908,368.282,159.908z"/>
			<path style="fill:#F5F5F5;" d="M334.499,159.908h19.484c0.663,0,1.233-0.542,1.268-1.205l0,0
				c0.035-0.663-0.479-1.205-1.142-1.205h-19.484c-0.663,0-1.233,0.542-1.268,1.205l0,0
				C333.323,159.365,333.837,159.908,334.499,159.908z"/>
			<path style="fill:#F5F5F5;" d="M300.717,159.908h19.484c0.663,0,1.233-0.542,1.268-1.205l0,0
				c0.035-0.663-0.479-1.205-1.142-1.205h-19.484c-0.662,0-1.233,0.542-1.267,1.205l0,0
				C299.54,159.365,300.054,159.908,300.717,159.908z"/>
			<path style="fill:#F5F5F5;" d="M266.935,159.908h19.484c0.663,0,1.233-0.542,1.268-1.205l0,0
				c0.035-0.663-0.479-1.205-1.142-1.205H267.06c-0.663,0-1.233,0.542-1.268,1.205l0,0
				C265.758,159.365,266.272,159.908,266.935,159.908z"/>
		</g>
	</g>
</g>
<g id="Background_Simple" style="display:none;">
	<g style="display:inline;">
		<g>
			<path style="fill:#407BFF;" d="M443.794,238.574c-6.704-15.916-30.473-35.844-48.878-39.398
				c-23.502-4.539-32.278,10.299-52.097,11.141c-53.52,2.273-81.224-36.144-114.292-69.642
				C155.241,66.438,42.411,122.18,93.882,226.434c30.939,62.667,125.043,149.851,193.682,70.989
				c29.667-34.086,12.259-48.069,62.318-30.249C369.635,274.206,474.161,310.664,443.794,238.574z"/>
		</g>
		<path style="opacity:0.9;fill:#FFFFFF;" d="M443.794,238.574c-6.704-15.916-30.473-35.844-48.878-39.398
			c-23.502-4.539-32.278,10.299-52.097,11.141c-53.52,2.273-81.224-36.144-114.292-69.642
			C155.241,66.438,42.411,122.18,93.882,226.434c30.939,62.667,125.043,149.851,193.682,70.989
			c29.667-34.086,12.259-48.069,62.318-30.249C369.635,274.206,474.161,310.664,443.794,238.574z"/>
	</g>
</g>
<g id="Shadow_1_">
	<ellipse id="_x3C_Path_x3E__210_" style="fill:#F5F5F5;" cx="250" cy="416.238" rx="193.889" ry="11.323"/>
</g>
<g id="Connection">
	<path style="fill:#407BFF;" d="M114.01,181.89c-0.55-0.02-0.98-0.49-0.95-1.04l0,0c0.021-0.55,0.49-0.98,1.04-0.96l0,0
		c0.55,0.03,0.98,0.5,0.96,1.05l0,0c-0.029,0.53-0.47,0.95-1,0.95l0,0C114.04,181.89,114.03,181.89,114.01,181.89z M393.81,181.61
		c-0.55-0.02-0.979-0.49-0.95-1.04l0,0c0.021-0.55,0.49-0.98,1.04-0.96l0,0c0.551,0.03,0.98,0.5,0.96,1.05l0,0
		c-0.029,0.54-0.47,0.95-1,0.95l0,0C393.84,181.61,393.83,181.61,393.81,181.61z M114.28,175.9c-0.551-0.03-0.98-0.49-0.961-1.05
		l0,0c0.03-0.55,0.49-0.98,1.051-0.95l0,0c0.55,0.02,0.97,0.49,0.949,1.04l0,0c-0.02,0.54-0.47,0.96-1,0.96l0,0
		C114.31,175.9,114.29,175.9,114.28,175.9z M394.08,175.62c-0.551-0.02-0.98-0.49-0.96-1.04l0,0c0.029-0.56,0.489-0.98,1.05-0.96
		l0,0c0.55,0.02,0.97,0.49,0.95,1.04l0,0c-0.02,0.54-0.471,0.96-1,0.96l0,0C394.109,175.62,394.09,175.62,394.08,175.62z
		 M114.54,169.9c-0.55-0.02-0.98-0.49-0.95-1.04l0,0c0.02-0.55,0.49-0.98,1.04-0.95l0,0c0.55,0.02,0.979,0.49,0.96,1.04l0,0
		c-0.03,0.54-0.47,0.96-1,0.95l0,0C114.569,169.9,114.56,169.9,114.54,169.9z M394.34,169.63c-0.55-0.03-0.98-0.5-0.95-1.05l0,0
		c0.021-0.55,0.49-0.98,1.04-0.95l0,0c0.55,0.02,0.98,0.49,0.96,1.04l0,0c-0.03,0.54-0.47,0.96-1,0.96l0,0
		C394.37,169.63,394.359,169.63,394.34,169.63z M388.399,167.66c0-0.55,0.44-1,1-1l0,0c0.551,0,1,0.45,1,1l0,0c0,0.55-0.449,1-1,1
		l0,0C388.84,168.66,388.399,168.21,388.399,167.66z M382.399,167.66c0-0.55,0.44-1,1-1l0,0c0.551,0,1,0.45,1,1l0,0
		c0,0.55-0.449,1-1,1l0,0C382.84,168.66,382.399,168.21,382.399,167.66z M376.399,167.66c0-0.55,0.44-1,1-1l0,0c0.551,0,1,0.45,1,1
		l0,0c0,0.55-0.449,1-1,1l0,0C376.84,168.66,376.399,168.21,376.399,167.66z M370.399,167.66c0-0.55,0.44-1,1-1l0,0
		c0.551,0,1,0.45,1,1l0,0c0,0.55-0.449,1-1,1l0,0C370.84,168.66,370.399,168.21,370.399,167.66z M364.399,167.66c0-0.55,0.44-1,1-1
		l0,0c0.551,0,1,0.45,1,1l0,0c0,0.55-0.449,1-1,1l0,0C364.84,168.66,364.399,168.21,364.399,167.66z M358.399,167.66
		c0-0.55,0.44-1,1-1l0,0c0.551,0,1,0.45,1,1l0,0c0,0.55-0.449,1-1,1l0,0C358.84,168.66,358.399,168.21,358.399,167.66z
		 M352.399,167.66c0-0.55,0.44-1,1-1l0,0c0.551,0,1,0.45,1,1l0,0c0,0.55-0.449,1-1,1l0,0
		C352.84,168.66,352.399,168.21,352.399,167.66z M346.399,167.66c0-0.55,0.45-1,1-1l0,0c0.551,0,1,0.45,1,1l0,0c0,0.55-0.449,1-1,1
		l0,0C346.85,168.66,346.399,168.21,346.399,167.66z M340.399,167.66c0-0.55,0.44-1,1-1l0,0c0.551,0,1,0.45,1,1l0,0
		c0,0.55-0.449,1-1,1l0,0C340.84,168.66,340.399,168.21,340.399,167.66z M334.399,167.66c0-0.55,0.45-1,1-1l0,0c0.551,0,1,0.45,1,1
		l0,0c0,0.55-0.449,1-1,1l0,0C334.85,168.66,334.399,168.21,334.399,167.66z M328.399,167.66c0-0.55,0.44-1,1-1l0,0
		c0.551,0,1,0.45,1,1l0,0c0,0.55-0.449,1-1,1l0,0C328.84,168.66,328.399,168.21,328.399,167.66z M322.399,167.66c0-0.55,0.45-1,1-1
		l0,0c0.551,0,1,0.45,1,1l0,0c0,0.55-0.449,1-1,1l0,0C322.85,168.66,322.399,168.21,322.399,167.66z M316.399,167.66
		c0-0.55,0.44-1,1-1l0,0c0.551,0,1,0.45,1,1l0,0c0,0.55-0.449,1-1,1l0,0C316.84,168.66,316.399,168.21,316.399,167.66z
		 M310.399,167.66c0-0.55,0.44-1,1-1l0,0c0.551,0,1,0.45,1,1l0,0c0,0.55-0.449,1-1,1l0,0
		C310.84,168.66,310.399,168.21,310.399,167.66z M304.399,167.66c0-0.55,0.44-1,1-1l0,0c0.551,0,1,0.45,1,1l0,0c0,0.55-0.449,1-1,1
		l0,0C304.84,168.66,304.399,168.21,304.399,167.66z M298.399,167.66c0-0.55,0.44-1,1-1l0,0c0.551,0,1,0.45,1,1l0,0
		c0,0.55-0.449,1-1,1l0,0C298.84,168.66,298.399,168.21,298.399,167.66z M292.399,167.66c0-0.55,0.44-1,1-1l0,0c0.551,0,1,0.45,1,1
		l0,0c0,0.55-0.449,1-1,1l0,0C292.84,168.66,292.399,168.21,292.399,167.66z M286.399,167.66c0-0.55,0.44-1,1-1l0,0
		c0.551,0,1,0.45,1,1l0,0c0,0.55-0.449,1-1,1l0,0C286.84,168.66,286.399,168.21,286.399,167.66z M280.399,167.66c0-0.55,0.44-1,1-1
		l0,0c0.551,0,1,0.45,1,1l0,0c0,0.55-0.449,1-1,1l0,0C280.84,168.66,280.399,168.21,280.399,167.66z M274.399,167.66
		c0-0.55,0.44-1,1-1l0,0c0.551,0,1,0.45,1,1l0,0c0,0.55-0.449,1-1,1l0,0C274.84,168.66,274.399,168.21,274.399,167.66z
		 M268.399,167.66c0-0.55,0.44-1,1-1l0,0c0.551,0,1,0.45,1,1l0,0c0,0.55-0.449,1-1,1l0,0
		C268.84,168.66,268.399,168.21,268.399,167.66z M262.399,167.66c0-0.55,0.44-1,1-1l0,0c0.551,0,1,0.45,1,1l0,0c0,0.55-0.449,1-1,1
		l0,0C262.84,168.66,262.399,168.21,262.399,167.66z M256.399,167.66c0-0.55,0.44-1,1-1l0,0c0.551,0,1,0.45,1,1l0,0
		c0,0.55-0.449,1-1,1l0,0C256.84,168.66,256.399,168.21,256.399,167.66z M250.399,167.66c0-0.55,0.44-1,1-1l0,0c0.551,0,1,0.45,1,1
		l0,0c0,0.55-0.449,1-1,1l0,0C250.84,168.66,250.399,168.21,250.399,167.66z M244.399,167.66c0-0.55,0.44-1,1-1l0,0
		c0.551,0,1,0.45,1,1l0,0c0,0.55-0.449,1-1,1l0,0C244.84,168.66,244.399,168.21,244.399,167.66z M238.399,167.66c0-0.55,0.44-1,1-1
		l0,0c0.551,0,1,0.45,1,1l0,0c0,0.55-0.449,1-1,1l0,0C238.84,168.66,238.399,168.21,238.399,167.66z M232.399,167.66
		c0-0.55,0.44-1,1-1l0,0c0.551,0,1,0.45,1,1l0,0c0,0.55-0.449,1-1,1l0,0C232.84,168.66,232.399,168.21,232.399,167.66z
		 M226.399,167.66c0-0.55,0.44-1,1-1l0,0c0.551,0,1,0.45,1,1l0,0c0,0.55-0.449,1-1,1l0,0
		C226.84,168.66,226.399,168.21,226.399,167.66z M220.399,167.66c0-0.55,0.44-1,1-1l0,0c0.551,0,1,0.45,1,1l0,0c0,0.55-0.449,1-1,1
		l0,0C220.84,168.66,220.399,168.21,220.399,167.66z M214.399,167.66c0-0.55,0.44-1,1-1l0,0c0.551,0,1,0.45,1,1l0,0
		c0,0.55-0.449,1-1,1l0,0C214.84,168.66,214.399,168.21,214.399,167.66z M208.399,167.66c0-0.55,0.45-1,1-1l0,0c0.551,0,1,0.45,1,1
		l0,0c0,0.55-0.449,1-1,1l0,0C208.85,168.66,208.399,168.21,208.399,167.66z M202.399,167.66c0-0.55,0.44-1,1-1l0,0
		c0.551,0,1,0.45,1,1l0,0c0,0.55-0.449,1-1,1l0,0C202.84,168.66,202.399,168.21,202.399,167.66z M196.399,167.66c0-0.55,0.45-1,1-1
		l0,0c0.551,0,1,0.45,1,1l0,0c0,0.55-0.449,1-1,1l0,0C196.85,168.66,196.399,168.21,196.399,167.66z M190.399,167.66
		c0-0.55,0.44-1,1-1l0,0c0.551,0,1,0.45,1,1l0,0c0,0.55-0.449,1-1,1l0,0C190.84,168.66,190.399,168.21,190.399,167.66z
		 M184.399,167.66c0-0.55,0.44-1,1-1l0,0c0.551,0,1,0.45,1,1l0,0c0,0.55-0.449,1-1,1l0,0
		C184.84,168.66,184.399,168.21,184.399,167.66z M178.399,167.66c0-0.55,0.44-1,1-1l0,0c0.551,0,1,0.45,1,1l0,0c0,0.55-0.449,1-1,1
		l0,0C178.84,168.66,178.399,168.21,178.399,167.66z M172.399,167.66c0-0.55,0.44-1,1-1l0,0c0.551,0,1,0.45,1,1l0,0
		c0,0.55-0.449,1-1,1l0,0C172.84,168.66,172.399,168.21,172.399,167.66z M166.399,167.66c0-0.55,0.44-1,1-1l0,0c0.551,0,1,0.45,1,1
		l0,0c0,0.55-0.449,1-1,1l0,0C166.84,168.66,166.399,168.21,166.399,167.66z M160.399,167.66c0-0.55,0.44-1,1-1l0,0
		c0.551,0,1,0.45,1,1l0,0c0,0.55-0.449,1-1,1l0,0C160.84,168.66,160.399,168.21,160.399,167.66z M154.399,167.66c0-0.55,0.44-1,1-1
		l0,0c0.551,0,1,0.45,1,1l0,0c0,0.55-0.449,1-1,1l0,0C154.84,168.66,154.399,168.21,154.399,167.66z M148.399,167.66
		c0-0.55,0.44-1,1-1l0,0c0.551,0,1,0.45,1,1l0,0c0,0.55-0.449,1-1,1l0,0C148.84,168.66,148.399,168.21,148.399,167.66z
		 M142.399,167.66c0-0.55,0.44-1,1-1l0,0c0.551,0,1,0.45,1,1l0,0c0,0.55-0.449,1-1,1l0,0
		C142.84,168.66,142.399,168.21,142.399,167.66z M136.399,167.66c0-0.55,0.44-1,1-1l0,0c0.551,0,1,0.45,1,1l0,0c0,0.55-0.449,1-1,1
		l0,0C136.84,168.66,136.399,168.21,136.399,167.66z M130.399,167.66c0-0.55,0.44-1,1-1l0,0c0.551,0,1,0.45,1,1l0,0
		c0,0.55-0.449,1-1,1l0,0C130.84,168.66,130.399,168.21,130.399,167.66z M124.399,167.66c0-0.55,0.44-1,1-1l0,0c0.551,0,1,0.45,1,1
		l0,0c0,0.55-0.449,1-1,1l0,0C124.84,168.66,124.399,168.21,124.399,167.66z M118.399,167.66c0-0.55,0.44-1,1-1l0,0
		c0.551,0,1,0.45,1,1l0,0c0,0.55-0.449,1-1,1l0,0C118.84,168.66,118.399,168.21,118.399,167.66z"/>
	<path style="fill:#407BFF;" d="M254.899,223.13c-0.55-0.02-0.97-0.49-0.949-1.04l0,0c0.02-0.55,0.489-0.98,1.04-0.95l0,0
		c0.55,0.02,0.979,0.49,0.96,1.04l0,0c-0.03,0.54-0.471,0.96-1,0.96l0,0C254.93,223.14,254.92,223.14,254.899,223.13z
		 M255.17,217.14c-0.561-0.02-0.98-0.49-0.96-1.04l0,0c0.03-0.55,0.49-0.98,1.05-0.96l0,0c0.55,0.03,0.97,0.49,0.95,1.05l0,0
		c-0.02,0.53-0.47,0.95-1,0.95l0,0C255.2,217.14,255.18,217.14,255.17,217.14z M255.43,211.15c-0.55-0.03-0.98-0.49-0.95-1.05l0,0
		c0.02-0.55,0.49-0.98,1.04-0.95l0,0c0.55,0.02,0.98,0.49,0.95,1.04l0,0c-0.02,0.54-0.46,0.96-0.99,0.96l0,0
		C255.46,211.15,255.45,211.15,255.43,211.15z M255.7,205.15c-0.551-0.02-0.98-0.49-0.96-1.04l0,0c0.02-0.55,0.489-0.98,1.04-0.96
		l0,0c0.56,0.03,0.979,0.5,0.96,1.05l0,0c-0.021,0.54-0.471,0.95-1,0.95l0,0C255.72,205.15,255.71,205.15,255.7,205.15z
		 M255.96,199.16c-0.55-0.03-0.98-0.49-0.96-1.05l0,0c0.03-0.55,0.5-0.97,1.05-0.95l0,0c0.55,0.02,0.98,0.49,0.95,1.04l0,0
		c-0.021,0.54-0.46,0.96-1,0.96l0,0C255.99,199.16,255.97,199.16,255.96,199.16z M256.22,193.16c-0.55-0.02-0.97-0.49-0.95-1.04l0,0
		c0.02-0.55,0.49-0.98,1.04-0.95l0,0c0.55,0.02,0.98,0.49,0.96,1.04l0,0c-0.02,0.54-0.47,0.95-1,0.95l0,0
		C256.25,193.16,256.24,193.16,256.22,193.16z M256.49,187.17c-0.551-0.02-0.98-0.49-0.96-1.04l0,0c0.029-0.55,0.5-0.98,1.05-0.96
		l0,0c0.55,0.03,0.979,0.49,0.95,1.05l0,0c-0.021,0.53-0.461,0.95-1,0.95l0,0C256.52,187.17,256.5,187.17,256.49,187.17z
		 M256.75,181.18c-0.55-0.03-0.98-0.49-0.95-1.05l0,0c0.02-0.55,0.49-0.98,1.04-0.95l0,0c0.56,0.02,0.979,0.49,0.96,1.04l0,0
		c-0.03,0.54-0.47,0.96-1,0.96l0,0C256.78,181.18,256.77,181.18,256.75,181.18z M257.02,175.18c-0.56-0.02-0.979-0.49-0.96-1.04l0,0
		c0.03-0.55,0.49-0.98,1.05-0.96l0,0c0.551,0.03,0.98,0.49,0.95,1.05l0,0c-0.02,0.53-0.46,0.95-1,0.95l0,0
		C257.05,175.18,257.03,175.18,257.02,175.18z"/>
</g>
<g id="Cloud">
	<g>
		<path style="fill:#263238;" d="M298.32,114.599c-0.524-9.201-8.149-16.502-17.482-16.502c-2.098,0-4.108,0.37-5.973,1.046
			c-4.242-6.588-11.636-10.955-20.054-10.955c-11.371,0-20.875,7.962-23.259,18.614c-0.278-0.009-0.555-0.021-0.835-0.021
			c-13.307,0-24.094,10.787-24.094,24.094s10.787,24.094,24.094,24.094h58.942c11.661,0,21.115-9.453,21.115-21.114
			C310.774,125.281,305.661,117.906,298.32,114.599z"/>
		<path style="fill:#407BFF;" d="M233.145,93.27l-0.699-0.715c1.324-1.295,2.781-2.46,4.332-3.464l0.543,0.84
			C235.827,90.898,234.422,92.022,233.145,93.27z"/>
		<path style="fill:#407BFF;" d="M217.418,106.256l-0.379-0.925c2.748-1.127,5.645-1.796,8.614-1.992
			c0.912-2.709,2.248-5.252,3.974-7.563l0.801,0.599c-1.729,2.314-3.051,4.871-3.931,7.597l-0.105,0.328l-0.344,0.019
			C223.071,104.477,220.168,105.129,217.418,106.256z"/>
		<path style="fill:#407BFF;" d="M295.083,114.599c-0.524-9.201-8.149-16.502-17.482-16.502c-2.098,0-4.108,0.37-5.973,1.046
			c-4.242-6.588-11.636-10.955-20.054-10.955c-11.371,0-20.876,7.962-23.26,18.614c-0.278-0.009-0.555-0.021-0.835-0.021
			c-13.307,0-24.094,10.787-24.094,24.094s10.787,24.094,24.094,24.094h58.942c11.661,0,21.115-9.453,21.115-21.114
			C307.537,125.281,302.424,117.906,295.083,114.599z"/>
		<g>
			<path style="fill:#FFFFFF;" d="M256.299,123.192l-9.397-9.397c-0.325-0.325-0.852-0.325-1.177,0l-9.397,9.397
				c-0.524,0.524-0.153,1.421,0.589,1.421h3.969c0.46,0,0.832,0.373,0.832,0.832v13.114c0,0.46,0.373,0.832,0.832,0.832h7.525
				c0.46,0,0.832-0.373,0.832-0.832v-13.114c0-0.46,0.373-0.832,0.832-0.832h3.969C256.452,124.613,256.823,123.717,256.299,123.192
				z"/>
			<path style="fill:#FFFFFF;" d="M254.624,129.751l9.397,9.397c0.325,0.325,0.852,0.325,1.177,0l9.397-9.397
				c0.524-0.524,0.153-1.421-0.589-1.421h-3.969c-0.46,0-0.832-0.373-0.832-0.832v-13.114c0-0.46-0.373-0.832-0.832-0.832h-7.526
				c-0.46,0-0.832,0.373-0.832,0.832v13.114c0,0.46-0.373,0.832-0.832,0.832h-3.969C254.471,128.33,254.1,129.226,254.624,129.751z"
				/>
		</g>
	</g>
</g>
<g id="Smartphone">
	<g>
		<path style="fill:#263238;" d="M413.303,287.997h-43.395c-1.78,0-3.172-1.456-3.094-3.237l3.833-86.917
			c0.078-1.78,1.599-3.236,3.379-3.236h43.395c1.78,0,3.172,1.456,3.094,3.236l-3.833,86.917
			C416.604,286.541,415.084,287.997,413.303,287.997z"/>
		<path style="fill:#407BFF;" d="M411.771,287.997h-43.395c-1.78,0-3.172-1.456-3.094-3.237l3.833-86.917
			c0.078-1.78,1.599-3.236,3.379-3.236h43.395c1.78,0,3.172,1.456,3.094,3.236l-3.833,86.917
			C415.071,286.541,413.551,287.997,411.771,287.997z"/>
		<path style="opacity:0.3;" d="M393.168,286.156h-6.028c-0.413,0-0.737-0.338-0.719-0.752l0.009-0.195
			c0.018-0.413,0.371-0.752,0.785-0.752h6.028c0.414,0,0.737,0.338,0.719,0.752l-0.009,0.195
			C393.935,285.818,393.582,286.156,393.168,286.156z"/>
		<path style="opacity:0.9;fill:#FFFFFF;" d="M369.738,282.451c-0.914,0-1.623-0.741-1.583-1.656l3.608-81.833
			c0.04-0.915,0.815-1.656,1.729-1.656h41.158c0.915,0,1.623,0.742,1.583,1.656l-3.608,81.833c-0.04,0.915-0.815,1.656-1.729,1.656
			H369.738z"/>
		<g>
			<path style="fill:#407BFF;" d="M387.44,252.792h-6.401c-0.327,0-0.63-0.128-0.853-0.362c-0.224-0.234-0.339-0.542-0.323-0.869
				l0.491-11.154c0.003-0.066-0.024-0.109-0.048-0.133c-0.022-0.024-0.063-0.053-0.129-0.053h-3.376
				c-0.492,0-0.91-0.281-1.092-0.732c-0.186-0.461-0.068-0.986,0.299-1.337l8.345-7.993c0.241-0.23,0.567-0.338,0.884-0.346
				c0.316,0.007,0.609,0.136,0.825,0.363l7.64,7.992c0.332,0.348,0.418,0.844,0.226,1.295c-0.197,0.46-0.646,0.758-1.142,0.758
				h-3.376c-0.122,0-0.234,0.108-0.24,0.23l-0.49,11.154C388.649,252.26,388.094,252.792,387.44,252.792z M385.209,230.813
				c-0.036,0-0.103,0.009-0.164,0.068l-8.345,7.993c-0.104,0.1-0.078,0.202-0.063,0.242c0.028,0.07,0.083,0.105,0.164,0.105h3.376
				c0.326,0,0.628,0.128,0.852,0.361s0.339,0.542,0.325,0.868l-0.493,11.155c-0.003,0.066,0.024,0.109,0.048,0.133
				c0.022,0.024,0.064,0.053,0.13,0.053h6.401c0.122,0,0.234-0.108,0.24-0.23l0.49-11.154c0.03-0.654,0.586-1.186,1.239-1.186h3.376
				c0.146,0,0.207-0.116,0.222-0.152c0.02-0.046,0.043-0.136-0.028-0.211l-7.641-7.992
				C385.296,230.821,385.241,230.808,385.209,230.813z"/>
			<path style="fill:#407BFF;" d="M399.803,252.792c-0.01,0-0.02-0.001-0.029-0.001c-0.316-0.007-0.609-0.136-0.824-0.362
				l-7.641-7.993c-0.332-0.348-0.419-0.844-0.226-1.295c0.197-0.46,0.645-0.758,1.141-0.758h3.377c0.124,0,0.234-0.105,0.24-0.23
				l0.491-11.153c0.029-0.654,0.585-1.186,1.238-1.186h6.401c0.326,0,0.629,0.128,0.852,0.361c0.224,0.233,0.339,0.542,0.325,0.868
				l-0.492,11.155c-0.004,0.066,0.023,0.109,0.047,0.133c0.022,0.024,0.065,0.053,0.13,0.053h3.376c0.492,0,0.91,0.281,1.092,0.733
				c0.185,0.461,0.068,0.986-0.299,1.337l-8.345,7.993C400.423,252.669,400.12,252.792,399.803,252.792z M392.031,243.746
				l7.641,7.993c0.041,0.043,0.046,0.043,0.13,0.053c0.036,0,0.103-0.009,0.164-0.068l8.345-7.993
				c0.104-0.1,0.078-0.202,0.063-0.242c-0.028-0.07-0.083-0.105-0.164-0.105h-3.376c-0.327,0-0.63-0.128-0.853-0.362
				c-0.224-0.233-0.339-0.542-0.323-0.869l0.491-11.153c0.003-0.066-0.024-0.109-0.047-0.133c-0.023-0.024-0.064-0.053-0.13-0.053
				h-6.401c-0.124,0-0.234,0.105-0.24,0.23l-0.49,11.153c-0.03,0.654-0.586,1.186-1.239,1.186h-3.377
				c-0.145,0-0.206,0.116-0.221,0.152C391.982,243.581,391.96,243.671,392.031,243.746L392.031,243.746z"/>
		</g>
		<g>
			<polygon style="opacity:0.2;fill:#FFFFFF;" points="395.595,194.607 385.766,194.607 368.304,287.997 378.133,287.997 			"/>
			<polygon style="opacity:0.3;fill:#FFFFFF;" points="406.879,194.607 404.418,194.607 386.956,287.997 389.417,287.997 			"/>
		</g>
		<path style="opacity:0.3;" d="M394.686,195.811c-0.013,0.303-0.27,0.548-0.572,0.548c-0.303,0-0.537-0.245-0.524-0.548
			c0.013-0.303,0.269-0.548,0.572-0.548C394.465,195.263,394.699,195.508,394.686,195.811z"/>
	</g>
</g>
<g id="Notebook">
	<g>
		<g>
			<path style="fill:#263238;" d="M343.134,348.355H177.656c-2.215,0-3.947-1.812-3.849-4.027l4.768-108.138
				c0.098-2.215,1.99-4.027,4.204-4.027h165.479c2.215,0,3.947,1.812,3.849,4.027l-4.768,108.138
				C347.241,346.543,345.349,348.355,343.134,348.355z"/>
			<path style="fill:#407BFF;" d="M341.227,348.355H175.748c-2.215,0-3.947-1.812-3.849-4.027l4.768-108.138
				c0.098-2.215,1.99-4.027,4.204-4.027H346.35c2.215,0,3.947,1.812,3.849,4.027l-4.768,108.138
				C345.334,346.543,343.442,348.355,341.227,348.355z"/>
			<path style="fill:#263238;" d="M343.057,350.105H177.578c-1.777,0-3.345,1.166-3.947,2.771c-0.232,0.62,0.232,1.256,0.885,1.256
				h171.249c0.653,0,1.173-0.636,0.995-1.256C346.3,351.271,344.834,350.105,343.057,350.105z"/>
			<path style="fill:#407BFF;" d="M314.025,350.105H148.547c-1.777,0-3.346,1.166-3.947,2.771c-0.232,0.62,0.232,1.256,0.885,1.256
				h171.249c0.653,0,1.173-0.636,0.995-1.256C317.268,351.271,315.802,350.105,314.025,350.105z"/>
			<path style="opacity:0.8;fill:#FFFFFF;" d="M246.147,352.373h-29.922c-0.338,0-1.425,0.422-1.585,1.759h32.937
				C247.535,352.795,246.485,352.373,246.147,352.373z"/>
			<path style="opacity:0.9;fill:#FFFFFF;" d="M179.949,341.997c-0.874,0-1.558-0.715-1.52-1.59l4.423-100.297
				c0.038-0.874,0.786-1.59,1.66-1.59H342.15c0.874,0,1.558,0.715,1.52,1.59l-4.423,100.297c-0.039,0.874-0.785,1.59-1.66,1.59
				H179.949z"/>
			<g>
				<path style="fill:#407BFF;" d="M252.554,309.191h-10.736c-0.455,0-0.876-0.178-1.186-0.502c-0.31-0.324-0.469-0.753-0.448-1.208
					l0.824-18.708c0.008-0.18-0.054-0.348-0.173-0.473c-0.119-0.125-0.283-0.193-0.463-0.193h-5.662
					c-0.684,0-1.266-0.389-1.518-1.016c-0.259-0.644-0.094-1.379,0.421-1.872l13.997-13.406c0.683-0.653,1.753-0.647,2.387,0.016
					l12.814,13.407c0.462,0.483,0.582,1.175,0.313,1.806c-0.277,0.648-0.906,1.066-1.602,1.066h-5.663
					c-0.391,0-0.724,0.318-0.741,0.71l-0.824,18.708C254.253,308.444,253.473,309.191,252.554,309.191z M248.811,272.327
					c-0.18,0-0.364,0.07-0.51,0.209l-13.997,13.406c-0.264,0.253-0.269,0.567-0.185,0.777c0.048,0.117,0.199,0.389,0.59,0.389h5.662
					c0.454,0,0.875,0.178,1.184,0.501c0.311,0.324,0.471,0.752,0.451,1.207l-0.825,18.709c-0.009,0.18,0.053,0.347,0.172,0.472
					c0.119,0.125,0.283,0.193,0.463,0.193h10.736c0.391,0,0.723-0.318,0.739-0.708l0.825-18.709c0.042-0.918,0.822-1.665,1.74-1.665
					h5.663c0.358,0,0.588-0.237,0.683-0.46c0.042-0.098,0.156-0.438-0.115-0.722l-12.814-13.406
					C249.151,272.392,248.983,272.327,248.811,272.327z"/>
				<path style="fill:#407BFF;" d="M273.287,309.191c-0.455,0-0.876-0.179-1.186-0.502l-12.814-13.406
					c-0.462-0.483-0.582-1.175-0.313-1.805c0.277-0.648,0.907-1.067,1.603-1.067h5.662c0.391,0,0.724-0.318,0.741-0.71l0.825-18.708
					c0.039-0.918,0.819-1.666,1.738-1.666h10.736c0.455,0,0.876,0.178,1.185,0.502s0.469,0.753,0.448,1.208l-0.823,18.708
					c-0.009,0.18,0.053,0.348,0.172,0.473c0.119,0.124,0.283,0.193,0.463,0.193h5.663c0.684,0,1.266,0.39,1.517,1.017
					c0.259,0.644,0.094,1.379-0.421,1.872l-13.997,13.406C274.16,309.018,273.734,309.191,273.287,309.191z M260.01,294.592
					l12.814,13.406c0.243,0.256,0.697,0.247,0.973-0.016l13.997-13.406c0.265-0.253,0.269-0.567,0.185-0.776
					c-0.047-0.117-0.198-0.389-0.589-0.389h-5.663c-0.455,0-0.876-0.178-1.186-0.502c-0.31-0.324-0.469-0.753-0.448-1.208
					l0.824-18.708c0.008-0.18-0.054-0.348-0.173-0.473c-0.119-0.124-0.283-0.193-0.463-0.193h-10.736
					c-0.391,0-0.723,0.318-0.739,0.709l-0.825,18.709c-0.042,0.919-0.822,1.666-1.74,1.666h-5.662c-0.359,0-0.589,0.238-0.684,0.46
					C259.853,293.968,259.738,294.308,260.01,294.592L260.01,294.592z"/>
			</g>
			<g>
				<polygon style="opacity:0.2;fill:#FFFFFF;" points="236.689,232.164 210.655,232.164 188.93,348.355 214.963,348.355 				"/>
				<polygon style="opacity:0.2;fill:#FFFFFF;" points="246.318,232.164 243.257,232.164 221.531,348.355 224.593,348.355 				"/>
				<polygon style="opacity:0.3;fill:#FFFFFF;" points="333.841,232.164 321.847,232.164 300.122,348.355 312.115,348.355 				"/>
			</g>
			<path style="opacity:0.3;" d="M264.637,235.517c-0.029,0.648-0.577,1.174-1.225,1.174c-0.648,0-1.15-0.525-1.122-1.174
				c0.029-0.648,0.577-1.174,1.225-1.174S264.666,234.869,264.637,235.517z"/>
		</g>
	</g>
</g>
<g id="Tablet">
	<g>
		<path style="fill:#263238;" d="M150.622,310.798H70.183c-2.215,0-3.947-1.812-3.849-4.027l4.768-108.138
			c0.098-2.215,1.99-4.027,4.204-4.027h80.439c2.215,0,3.947,1.812,3.849,4.027l-4.768,108.138
			C154.729,308.986,152.837,310.798,150.622,310.798z"/>
		<path style="fill:#407BFF;" d="M148.715,310.798H68.276c-2.215,0-3.947-1.812-3.849-4.027l4.768-108.138
			c0.098-2.215,1.99-4.027,4.204-4.027h80.439c2.215,0,3.947,1.812,3.849,4.027l-4.768,108.138
			C152.822,308.986,150.93,310.798,148.715,310.798z"/>
		<path style="opacity:0.3;" d="M112.346,308.507h-7.499c-0.514,0-0.917-0.421-0.894-0.935l0.011-0.242
			c0.023-0.515,0.462-0.936,0.977-0.936h7.499c0.515,0,0.917,0.421,0.894,0.936l-0.011,0.242
			C113.3,308.086,112.861,308.507,112.346,308.507z"/>
		<path style="opacity:0.9;fill:#FFFFFF;" d="M69.971,303.897c-1.138,0-2.019-0.922-1.969-2.06l4.489-101.813
			c0.05-1.138,1.013-2.061,2.152-2.061H152.3c1.138,0,2.02,0.923,1.97,2.061l-4.489,101.812c-0.05,1.138-1.013,2.061-2.152,2.061
			H69.971z"/>
		<g>
			<path style="fill:#407BFF;" d="M103.707,267.546H94.32c-0.414,0-0.799-0.163-1.081-0.457c-0.283-0.295-0.43-0.687-0.412-1.102
				l0.723-16.358c0.006-0.14-0.042-0.271-0.135-0.367c-0.092-0.096-0.219-0.149-0.358-0.149h-4.951
				c-0.624,0-1.154-0.355-1.385-0.928c-0.236-0.587-0.086-1.256,0.383-1.705l12.238-11.722c0.308-0.294,0.701-0.45,1.128-0.442
				c0.401,0.009,0.773,0.172,1.047,0.459l11.205,11.721c0.422,0.441,0.531,1.072,0.285,1.647c-0.252,0.59-0.825,0.971-1.459,0.971
				h-4.951c-0.304,0-0.571,0.257-0.585,0.561l-0.722,16.357C105.254,266.866,104.543,267.546,103.707,267.546z M100.435,235.314
				c-0.147,0-0.29,0.059-0.401,0.165l-12.238,11.722c-0.208,0.2-0.212,0.446-0.146,0.61c0.036,0.09,0.154,0.301,0.457,0.301h4.951
				c0.415,0,0.799,0.163,1.081,0.458c0.283,0.296,0.429,0.688,0.41,1.103l-0.721,16.357c-0.007,0.14,0.041,0.27,0.134,0.367
				c0.093,0.096,0.22,0.149,0.359,0.149h9.387c0.304,0,0.571-0.256,0.585-0.56l0.721-16.357c0.037-0.836,0.748-1.517,1.584-1.517
				h4.951c0.283,0,0.464-0.188,0.539-0.364c0.042-0.098,0.117-0.348-0.088-0.563l-11.205-11.721
				c-0.089-0.094-0.212-0.146-0.347-0.15C100.443,235.315,100.438,235.314,100.435,235.314z"/>
			<path style="fill:#407BFF;" d="M121.837,267.546c-0.012,0-0.022,0-0.034,0c-0.402-0.009-0.774-0.172-1.049-0.459l-11.204-11.721
				c-0.422-0.441-0.531-1.072-0.286-1.647c0.252-0.59,0.824-0.971,1.459-0.971h4.952c0.304,0,0.571-0.256,0.585-0.56l0.721-16.357
				c0.036-0.837,0.747-1.517,1.583-1.517h9.388c0.415,0,0.799,0.163,1.081,0.458c0.283,0.296,0.429,0.688,0.411,1.102l-0.723,16.357
				c-0.006,0.14,0.042,0.27,0.134,0.367c0.093,0.096,0.221,0.149,0.36,0.149h4.951c0.624,0,1.155,0.356,1.385,0.929
				c0.235,0.587,0.085,1.257-0.384,1.705l-12.238,11.721C122.63,267.39,122.243,267.546,121.837,267.546z M110.723,253.749
				c-0.283,0-0.464,0.188-0.539,0.364c-0.042,0.098-0.117,0.348,0.089,0.563l11.204,11.721c0.09,0.094,0.213,0.147,0.348,0.15
				c0.16-0.013,0.298-0.056,0.413-0.165l12.238-11.722c0.209-0.2,0.213-0.446,0.147-0.61c-0.037-0.091-0.154-0.301-0.457-0.301
				h-4.951c-0.415,0-0.8-0.163-1.083-0.459c-0.282-0.295-0.428-0.686-0.409-1.101l0.721-16.357c0.007-0.14-0.041-0.271-0.134-0.367
				c-0.092-0.096-0.219-0.149-0.358-0.149h-9.388c-0.304,0-0.571,0.257-0.585,0.561l-0.72,16.357
				c-0.037,0.836-0.748,1.516-1.584,1.516H110.723z"/>
		</g>
		<g>
			<polygon style="opacity:0.2;fill:#FFFFFF;" points="129.216,194.607 103.182,194.607 81.457,310.798 107.491,310.798 			"/>
			<polygon style="opacity:0.3;fill:#FFFFFF;" points="138.846,194.607 135.784,194.607 114.059,310.798 117.121,310.798 			"/>
		</g>
		<path style="opacity:0.3;" d="M114.235,196.105c-0.017,0.376-0.335,0.682-0.712,0.682c-0.377,0-0.668-0.305-0.652-0.682
			c0.017-0.376,0.335-0.682,0.712-0.682C113.96,195.423,114.251,195.728,114.235,196.105z"/>
	</g>
</g>
</svg>
