<svg fill="#1A92D4" enable-background="new 0 0 64 64" height="512" viewBox="0 0 64 64" width="512" xmlns="http://www.w3.org/2000/svg"><g id="Security_guard"><g><g><path d="m46.1 26.6-13-5.2c-.7-.3-1.5-.3-2.2 0l-13 5.2c-1.1.4-1.9 1.5-1.9 2.7v7.1c0 9.6 6.5 18 15.7 20.5h.3.3c4.5-1.2 8.5-3.9 11.4-7.6 1.9-2.4 3.2-5.3 3.9-8.2.1-.5-.2-1.1-.8-1.2-.5-.1-1.1.2-1.2.8-.6 2.7-1.8 5.3-3.5 7.5-2.5 3.3-6.1 5.7-10 6.8-8.3-2.3-14-9.9-14-18.5v-7.1c0-.4.3-.8.6-.9l13-5.2c.2-.1.5-.1.7 0l13 5.2c.4.1.6.5.6.9v2.6c0 .6.4 1 1 1s1-.4 1-1v-2.7c0-1.2-.8-2.3-1.9-2.7z"/></g></g><g><g><path d="m47 35c-.6 0-1 .4-1 1v.5.5c0 .6.4 1 .9 1.1h.1c.5 0 1-.4 1-.9 0-.2 0-.4 0-.6v-.6c0-.6-.4-1-1-1z"/></g></g><g><g><path d="m32 27c-3.3 0-6 2.7-6 6v1.1c-1.1.3-2 1.4-2 2.6v8.5c0 1.5 1.2 2.7 2.7 2.7h10.5c1.5 0 2.7-1.2 2.7-2.7v-8.5c0-1.3-.9-2.3-2-2.6v-1.1c.1-3.3-2.6-6-5.9-6zm-4 6c0-2.2 1.8-4 4-4s4 1.8 4 4v1h-8zm10 12.3c0 .4-.3.7-.7.7h-10.6c-.4 0-.7-.3-.7-.7v-8.5c0-.4.3-.7.7-.7h.3 10 .3c.4 0 .7.3.7.7z"/></g></g><g><g><path d="m32 38c-1.1 0-2 .9-2 2 0 .7.4 1.4 1 1.7v1.3c0 .6.4 1 1 1s1-.4 1-1v-1.3c.6-.3 1-1 1-1.7 0-1.1-.9-2-2-2z"/></g></g><g><g><path d="m10 15h26c1.7 0 3-1.3 3-3v-2c0-1.7-1.3-3-3-3h-26c-1.7 0-3 1.3-3 3v2c0 1.7 1.3 3 3 3zm-1-5c0-.6.4-1 1-1h26c.6 0 1 .4 1 1v2c0 .6-.4 1-1 1h-26c-.6 0-1-.4-1-1z"/></g></g><g><g><circle cx="49" cy="11" r="2"/></g></g><g><g><circle cx="43" cy="11" r="2"/></g></g><g><g><circle cx="55" cy="11" r="2"/></g></g><g><g><path d="m58 3h-52c-1.7 0-3 1.3-3 3v52c0 1.7 1.3 3 3 3h52c1.7 0 3-1.3 3-3v-52c0-1.7-1.3-3-3-3zm-52 2h52c.6 0 1 .4 1 1v11h-54v-11c0-.6.4-1 1-1zm52 54h-52c-.6 0-1-.4-1-1v-39h54v39c0 .6-.4 1-1 1z"/></g></g></g></svg>