<svg fill="#1A92D4" id="Capa_1" enable-background="new 0 0 512 512" height="512" viewBox="0 0 512 512" width="512" xmlns="http://www.w3.org/2000/svg"><g><g><path d="m484.297 0h-456.594c-15.275 0-27.703 12.428-27.703 27.703v393.967c0 12.259 8.007 22.676 19.064 26.314l-16.867 16.867c-2.929 2.929-2.929 7.678 0 10.606 2.929 2.929 7.678 2.929 10.606 0l27.022-27.022 23.739 23.739-27.022 27.022c-2.929 2.929-2.929 7.678 0 10.606 1.464 1.464 3.384 2.197 5.303 2.197s3.839-.732 5.303-2.197l32.325-32.325c2.844-2.844 2.918-7.398.24-10.341l12.652-12.653c1.428 1.299 3.23 1.957 5.038 1.957 1.919 0 3.839-.732 5.303-2.197l4.874-4.874h202.44c4.142 0 7.5-3.358 7.5-7.5s-3.358-7.5-7.5-7.5h-71.092c36.324-20.299 60.942-59.136 60.942-103.62 0-20.821-5.423-41.077-15.703-58.972l16.221-16.219 38.127 39.022c1.401 1.434 3.317 2.247 5.321 2.259 1.991-.031 3.93-.78 5.347-2.197l37.51-37.51c2.929-2.929 2.929-7.678 0-10.606-2.929-2.93-7.678-2.929-10.606 0l-32.145 32.145-38.127-39.022c-1.401-1.434-3.317-2.247-5.321-2.259-.015 0-.029 0-.044 0-1.988 0-3.896.79-5.303 2.196l-96.642 96.632-20.872-21.545 120.797-120.796 38.126 38.135c1.406 1.407 3.314 2.197 5.303 2.197 1.989 0 3.897-.79 5.303-2.197l61.62-61.62c2.929-2.928 2.929-7.676.001-10.605l-11.069-11.074 65.166-11.713-11.713 65.16-10.054-10.053c-2.929-2.929-7.678-2.929-10.606 0l-29.68 29.68c-2.929 2.929-2.929 7.678 0 10.606 2.928 2.929 7.677 2.929 10.606 0l24.377-24.376 14.896 14.896c1.975 1.975 4.884 2.689 7.546 1.854 2.665-.835 4.645-3.082 5.139-5.83l16.16-89.9c.435-2.417-.342-4.894-2.079-6.63-1.736-1.736-4.213-2.509-6.63-2.079l-89.9 16.16c-2.748.494-4.994 2.474-5.829 5.138s-.122 5.571 1.852 7.546l15.909 15.916-51.014 51.014-38.126-38.135c-1.406-1.407-3.314-2.197-5.303-2.197-1.989 0-3.897.79-5.303 2.197l-50.993 50.993c-18.362-11.018-39.276-16.829-60.884-16.829-65.407 0-118.62 53.213-118.62 118.62 0 21.182 5.587 41.082 15.355 58.313l-20.229 20.23c-2.844 2.844-2.918 7.398-.24 10.341l-12.653 12.653c-2.943-2.678-7.498-2.604-10.341.24l-1.844 1.844h-4.979c-7.003 0-12.7-5.697-12.7-12.7v-323.842h60c4.142 0 7.5-3.358 7.5-7.5s-3.358-7.5-7.5-7.5h-60v-55.127c0-7.004 5.699-12.703 12.703-12.703h456.594c7.004 0 12.703 5.699 12.703 12.703v55.127h-387c-4.142 0-7.5 3.358-7.5 7.5s3.358 7.5 7.5 7.5h387v323.84c0 7.003-5.697 12.7-12.7 12.7h-139.28c-4.142 0-7.5 3.358-7.5 7.5s3.358 7.5 7.5 7.5h139.28c15.274 0 27.7-12.426 27.7-27.7v-393.967c0-15.275-12.428-27.703-27.703-27.703zm-402.55 443.89-12.627 12.628-13.637-13.638 12.627-12.627zm40.835-9.52.355-.355c.211.12.423.237.635.355zm39.141-114.562 31.31 32.32c1.398 1.444 3.317 2.266 5.327 2.281h.06c1.988 0 3.896-.79 5.303-2.196l44.878-44.873c2.615 7.474 3.939 15.311 3.939 23.409 0 39.31-31.98 71.29-71.29 71.29s-71.29-31.98-71.29-71.29 31.98-71.29 71.29-71.29c8.776 0 17.472 1.64 25.607 4.776l-45.051 45.051c-2.895 2.897-2.933 7.581-.083 10.522zm19.527-92.678c17.604 0 34.677 4.416 49.903 12.811l-12.882 12.882c-11.518-5.483-24.203-8.362-37.021-8.362-47.581 0-86.29 38.709-86.29 86.29s38.709 86.29 86.29 86.29 86.29-38.709 86.29-86.29c0-12.027-2.55-23.996-7.403-34.944l12.985-12.984c7.7 14.724 11.748 31.112 11.748 47.928 0 57.136-46.484 103.62-103.62 103.62s-103.62-46.485-103.62-103.621 46.484-103.62 103.62-103.62zm-94.868 174.749c6.754 8.986 14.753 16.985 23.739 23.739l-12.716 12.716-23.739-23.739z"/><path d="m450.961 48.917c0-6.695-5.427-12.122-12.122-12.122s-12.122 5.427-12.122 12.122 5.427 12.122 12.122 12.122 12.122-5.428 12.122-12.122z"/><path d="m409.545 48.917c0-6.695-5.427-12.122-12.122-12.122s-12.122 5.427-12.122 12.122 5.427 12.122 12.122 12.122 12.122-5.428 12.122-12.122z"/><path d="m368.128 48.917c0-6.695-5.427-12.122-12.122-12.122s-12.122 5.427-12.122 12.122 5.427 12.122 12.122 12.122 12.122-5.428 12.122-12.122z"/><path d="m39.825 120.21c-4.142 0-7.5 3.358-7.5 7.5v40.406c0 4.142 3.358 7.5 7.5 7.5h141.423c4.142 0 7.5-3.358 7.5-7.5v-40.406c0-4.142-3.358-7.5-7.5-7.5zm133.923 40.406h-126.423v-25.406h126.423z"/><path d="m385.882 377.22c0 4.142 3.358 7.5 7.5 7.5h70.711c4.142 0 7.5-3.358 7.5-7.5s-3.358-7.5-7.5-7.5h-70.711c-4.142 0-7.5 3.358-7.5 7.5z"/><path d="m393.382 417.045h70.711c4.142 0 7.5-3.358 7.5-7.5s-3.358-7.5-7.5-7.5h-70.711c-4.142 0-7.5 3.358-7.5 7.5s3.358 7.5 7.5 7.5z"/><path d="m464.093 352.395c4.142 0 7.5-3.358 7.5-7.5s-3.358-7.5-7.5-7.5h-40.406c-4.142 0-7.5 3.358-7.5 7.5s3.358 7.5 7.5 7.5z"/></g></g></svg>